<?xml version="1.0" encoding="UTF-8"?>
<svg version="1.1" xmlns="http://www.w3.org/2000/svg" width="192" height="192">
<path d="M0 0 C63.36 0 126.72 0 192 0 C192 63.36 192 126.72 192 192 C128.64 192 65.28 192 0 192 C0 128.64 0 65.28 0 0 Z " fill="#02B28B" transform="translate(0,0)"/>
<path d="M0 0 C0.66 0 1.32 0 2 0 C2 0.99 2 1.98 2 3 C5.63 3 9.26 3 13 3 C13 2.01 13 1.02 13 0 C13.66 0 14.32 0 15 0 C15 0.99 15 1.98 15 3 C15.639375 3.144375 16.27875 3.28875 16.9375 3.4375 C19 4 19 4 20 5 C20.07205511 6.68608966 20.08386068 8.37500659 20.0625 10.0625 C20.05347656 10.98160156 20.04445312 11.90070312 20.03515625 12.84765625 C20.02355469 13.55792969 20.01195312 14.26820312 20 15 C20.81082031 14.46890625 21.62164062 13.9378125 22.45703125 13.390625 C29.43025259 8.94205074 36.02236707 5.39092263 44 3 C45.06347656 2.64421875 46.12695312 2.2884375 47.22265625 1.921875 C64.65909586 -2.3335539 81.75050847 2.35862146 97 11 C99.06963108 12.26823258 101.03124012 13.57811787 103 15 C102.97679687 14.30132812 102.95359375 13.60265625 102.9296875 12.8828125 C102.91164063 11.97273438 102.89359375 11.06265625 102.875 10.125 C102.85179687 9.22007813 102.82859375 8.31515625 102.8046875 7.3828125 C103 5 103 5 105 3 C105.99 3 106.98 3 108 3 C108 2.01 108 1.02 108 0 C108.66 0 109.32 0 110 0 C110 0.99 110 1.98 110 3 C113.63 3 117.26 3 121 3 C121 2.01 121 1.02 121 0 C121.66 0 122.32 0 123 0 C123 0.99 123 1.98 123 3 C124.98 3.495 124.98 3.495 127 4 C127.02887512 7.64581687 127.04675585 11.29160463 127.0625 14.9375 C127.07087891 15.97841797 127.07925781 17.01933594 127.08789062 18.09179688 C127.09111328 19.08115234 127.09433594 20.07050781 127.09765625 21.08984375 C127.10289307 22.00628662 127.10812988 22.92272949 127.11352539 23.86694336 C127 26 127 26 126 27 C123.98035801 27.07244053 121.95832876 27.08377188 119.9375 27.0625 C118.83277344 27.05347656 117.72804687 27.04445313 116.58984375 27.03515625 C115.73519531 27.02355469 114.88054687 27.01195313 114 27 C114.36351562 27.4640625 114.72703125 27.928125 115.1015625 28.40625 C127.58168152 45.55841358 128.22370736 65.50592049 128 86 C129.32 86.33 130.64 86.66 132 87 C131.01 87.33 130.02 87.66 129 88 C129 88.66 129 89.32 129 90 C129.99 90.33 130.98 90.66 132 91 C130.68 91.33 129.36 91.66 128 92 C129.21830596 97.64850946 130.73287307 99.94622942 135 104 C138.18560426 110.21192831 139.04659144 118.11921797 138 125 C136.58124618 127.51010292 135.11933032 128.9866362 133 131 C137.29 131.33 141.58 131.66 146 132 C146 132.66 146 133.32 146 134 C91.22 134 36.44 134 -20 134 C-20 133.34 -20 132.68 -20 132 C-17.03 131.67 -14.06 131.34 -11 131 C-11.825 130.278125 -12.65 129.55625 -13.5 128.8125 C-16.94149281 124.68466959 -16.62373392 120.36127787 -16.44140625 115.19140625 C-15.92570284 111.46282495 -14.79290106 108.91043181 -12.90625 105.703125 C-11.46114006 102.98731494 -11.46891789 100.98733685 -12 98 C-12.680625 97.154375 -13.36125 96.30875 -14.0625 95.4375 C-16 93 -16 93 -15.75 90.1875 C-15.5025 89.465625 -15.255 88.74375 -15 88 C-11.625 87.875 -11.625 87.875 -8 88 C-7.34 88.66 -6.68 89.32 -6 90 C-5.96559814 89.08412109 -5.93119629 88.16824219 -5.89575195 87.22460938 C-4.99124632 64.93310322 -3.78596281 46.17894422 9 27 C4.71 27 0.42 27 -4 27 C-4 19.41 -4 11.82 -4 4 C-2.68 3.67 -1.36 3.34 0 3 C0 2.01 0 1.02 0 0 Z " fill="#13271F" transform="translate(35,33)"/>
<path d="M0 0 C0.99193359 0.59941406 0.99193359 0.59941406 2.00390625 1.2109375 C3.6875 2.375 3.6875 2.375 6 5 C6.48500826 7.85142218 6.2969634 10.07985991 6 13 C7.155 12.731875 8.31 12.46375 9.5 12.1875 C11.69921875 12.16796875 11.69921875 12.16796875 14 13 C19.1079727 19.0482013 22.73232274 26.4410758 25 34 C25.20238281 34.65742187 25.40476562 35.31484375 25.61328125 35.9921875 C27.45166809 42.82048147 27.86748121 49.9900508 27 57 C24.52613556 60.57335975 22.00086323 62.37001868 18 64 C17.59007812 63.566875 17.18015625 63.13375 16.7578125 62.6875 C16.21898437 62.130625 15.68015625 61.57375 15.125 61 C14.59132813 60.443125 14.05765625 59.88625 13.5078125 59.3125 C12.08175012 57.78114478 12.08175012 57.78114478 10 58 C8.99740493 61.00778521 8.69685358 63.53820647 8.4375 66.6875 C8.31181641 68.17830078 8.31181641 68.17830078 8.18359375 69.69921875 C8.12300781 70.45847656 8.06242187 71.21773438 8 72 C6.515 72.495 6.515 72.495 5 73 C5.66 73.33 6.32 73.66 7 74 C7 74.66 7 75.32 7 76 C6.01 76.495 6.01 76.495 5 77 C6.485 77.495 6.485 77.495 8 78 C8.50634631 82.25330903 8.24087041 83.67672656 5.625 87.1875 C4.75875 88.115625 3.8925 89.04375 3 90 C2.34 90.99 1.68 91.98 1 93 C-1.00760972 93.45333123 -3.01557109 93.90535927 -5.02734375 94.33984375 C-8.11067314 95.37169062 -9.35039003 97.29463965 -11 100 C-11.495 101.485 -11.495 101.485 -12 103 C-13.2375 103.0825 -14.475 103.165 -15.75 103.25 C-19.85684761 103.73908168 -21.13009916 105.03752171 -24 108 C-32.03878863 110.09707529 -41.96233836 109.91084031 -50 108 C-50.3403125 106.453125 -50.3403125 106.453125 -50.6875 104.875 C-51.95720559 100.53683925 -53.67846658 98.10009786 -57 95 C-61.01699158 93.83142063 -63.21540636 93.73846879 -67.1875 95.0625 C-70 96 -70 96 -72.375 95.125 C-72.91125 94.75375 -73.4475 94.3825 -74 94 C-73 92 -72 90 -71 88 C-70.15697327 88.00222061 -69.31394653 88.00444122 -68.44537354 88.00672913 C-60.4999032 88.02676776 -52.55444136 88.04199239 -44.60895157 88.05181217 C-40.52412081 88.05703032 -36.43931093 88.06410861 -32.35449219 88.07543945 C-28.41228785 88.08630624 -24.4701036 88.09228489 -20.52788544 88.09487724 C-19.0240014 88.09672464 -17.52011846 88.10033213 -16.01624298 88.10573006 C-13.90956752 88.11299078 -11.80297503 88.11398881 -9.69628906 88.11352539 C-8.49715881 88.115746 -7.29802856 88.11796661 -6.06256104 88.12025452 C-2.43209268 88.00248388 -2.43209268 88.00248388 1 87 C2.05555539 83.83333383 2.14572408 81.54223741 2.17700195 78.21508789 C2.18983719 77.02698013 2.20267242 75.83887238 2.21589661 74.61476135 C2.22328354 73.33036667 2.23067047 72.04597198 2.23828125 70.72265625 C2.25038887 68.74560951 2.25038887 68.74560951 2.26274109 66.72862244 C2.27775109 63.93863046 2.2875983 61.14866382 2.29516602 58.35864258 C2.30624507 54.78620661 2.34066898 51.21439103 2.38033772 47.64217472 C2.41276747 44.23152639 2.41727846 40.82094688 2.42578125 37.41015625 C2.45204338 35.48660057 2.45204338 35.48660057 2.47883606 33.52418518 C2.47591049 32.33292526 2.47298492 31.14166534 2.4699707 29.91430664 C2.47877007 28.3423629 2.47877007 28.3423629 2.48774719 26.73866272 C1.87475386 23.29675263 0.71973958 22.12862981 -2 20 C-4.57117914 19.31125617 -4.57117914 19.31125617 -7.25 19.25 C-8.58804688 19.16492188 -8.58804688 19.16492188 -9.953125 19.078125 C-10.62859375 19.05234375 -11.3040625 19.0265625 -12 19 C-12.12375 17.88625 -12.2475 16.7725 -12.375 15.625 C-12.6465813 11.96896323 -12.6465813 11.96896323 -15 10 C-18 9.66666667 -18 9.66666667 -21 10 C-23.76666667 12.36666667 -23.76666667 12.36666667 -24 19 C-32.25 19 -40.5 19 -49 19 C-49.495 15.535 -49.495 15.535 -50 12 C-51.88659875 9.69337401 -51.88659875 9.69337401 -55 9.6875 C-55.99 9.790625 -56.98 9.89375 -58 10 C-60.12508244 13.18762365 -60.5020163 15.26512223 -61 19 C-61.67546875 19.02578125 -62.3509375 19.0515625 -63.046875 19.078125 C-63.93890625 19.13484375 -64.8309375 19.1915625 -65.75 19.25 C-66.63171875 19.29640625 -67.5134375 19.3428125 -68.421875 19.390625 C-71.75332176 20.17805787 -72.85681096 21.35493862 -75 24 C-75.61221649 26.65237961 -75.61221649 26.65237961 -75.54589844 29.59472656 C-75.57547638 31.27601654 -75.57547638 31.27601654 -75.60565186 32.99127197 C-75.60749481 34.79770172 -75.60749481 34.79770172 -75.609375 36.640625 C-75.62591125 37.87794373 -75.64244751 39.11526245 -75.65948486 40.39007568 C-75.69982385 43.67151531 -75.72314761 46.9524963 -75.73822021 50.23413086 C-75.75780671 53.58595841 -75.80010897 56.93741314 -75.83984375 60.2890625 C-75.91384629 66.85930483 -75.9654191 73.42943834 -76 80 C-77.32 80 -78.64 80 -80 80 C-80 73.73 -80 67.46 -80 61 C-82.31 62.32 -84.62 63.64 -87 65 C-89.546875 65.4609375 -89.546875 65.4609375 -91.75 65.375 C-92.48734375 65.36210938 -93.2246875 65.34921875 -93.984375 65.3359375 C-96 65 -96 65 -99 63 C-103.18345893 50.44962322 -99.18317912 35.41002363 -93.5703125 24.03515625 C-93.05210938 23.03355469 -92.53390625 22.03195313 -92 21 C-91.58492187 20.15308594 -91.16984375 19.30617188 -90.7421875 18.43359375 C-89.62570249 16.36698739 -88.64645341 14.67467833 -87 13 C-83.1875 12 -83.1875 12 -80 12 C-79.96777344 10.77796875 -79.93554688 9.5559375 -79.90234375 8.296875 C-79.43065754 4.5855138 -79.12279546 4.11408535 -76.19140625 1.390625 C-74.99993914 0.64714287 -73.78883301 -0.06555358 -72.5625 -0.75 C-71.92868408 -1.12777588 -71.29486816 -1.50555176 -70.6418457 -1.89477539 C-47.82999749 -15.18269861 -22.1799784 -14.18002038 0 0 Z " fill="#F1F6E4" transform="translate(133,47)"/>
<path d="M0 0 C24.75 0 49.5 0 75 0 C75.061875 6.703125 75.12375 13.40625 75.1875 20.3125 C75.22846802 23.4822644 75.22846802 23.4822644 75.27026367 26.71606445 C75.27902511 28.3901309 75.28666986 30.06420373 75.29296875 31.73828125 C75.3159906 33.04315491 75.3159906 33.04315491 75.33947754 34.37438965 C75.34002136 35.62246399 75.34002136 35.62246399 75.34057617 36.89575195 C75.35056892 37.97830009 75.35056892 37.97830009 75.36076355 39.0827179 C75 41 75 41 73.88241577 42.73324585 C71.09952331 44.6059674 68.87428091 44.37409628 65.54077148 44.37231445 C64.89005676 44.37596512 64.23934204 44.37961578 63.56890869 44.38337708 C61.41937106 44.39147916 59.27058804 44.37787777 57.12109375 44.36328125 C55.62801616 44.36276266 54.13493788 44.36328032 52.64186096 44.36479187 C49.51382241 44.36470217 46.3860417 44.3542757 43.25805664 44.33618164 C39.24391855 44.31347471 35.23015661 44.31295403 31.21597195 44.31969929 C28.13365827 44.32303657 25.05143073 44.3164141 21.96913338 44.30657005 C20.48872389 44.30271506 19.00830482 44.30157107 17.52789116 44.3031559 C15.46168543 44.30352576 13.39596672 44.29093012 11.32983398 44.2746582 C10.15307602 44.27005081 8.97631805 44.26544342 7.76390076 44.26069641 C5 44 5 44 3 42 C2.73008094 39.31160615 2.91262643 36.70858064 3 34 C2.01 34 1.02 34 0 34 C0 22.78 0 11.56 0 0 Z " fill="#DFE4D6" transform="translate(59,90)"/>
<path d="M0 0 C0.495 1.98 0.495 1.98 1 4 C2.32 4 3.64 4 5 4 C5.33 3.01 5.66 2.02 6 1 C6.02887814 4.47914941 6.04675687 7.95826831 6.0625 11.4375 C6.07087891 12.43072266 6.07925781 13.42394531 6.08789062 14.44726562 C6.09111328 15.39150391 6.09433594 16.33574219 6.09765625 17.30859375 C6.10289307 18.18314209 6.10812988 19.05769043 6.11352539 19.95874023 C6 22 6 22 5 23 C2.98035801 23.07244053 0.95832876 23.08377188 -1.0625 23.0625 C-2.16722656 23.05347656 -3.27195312 23.04445313 -4.41015625 23.03515625 C-5.26480469 23.02355469 -6.11945313 23.01195313 -7 23 C-6.63648438 23.4640625 -6.27296875 23.928125 -5.8984375 24.40625 C6.58168152 41.55841358 7.22370736 61.50592049 7 82 C8.98 82.495 8.98 82.495 11 83 C9.515 83.495 9.515 83.495 8 84 C8 84.66 8 85.32 8 86 C9.485 86.495 9.485 86.495 11 87 C9.68 87.33 8.36 87.66 7 88 C8.14003326 93.31606609 8.14003326 93.31606609 11.5 97.5 C15.45655855 101.45655855 15.97749011 104.74619732 16.03125 110.12890625 C15.74109074 116.5051561 15.47436958 121.26995216 11 126 C8.9375 127.4375 8.9375 127.4375 7 128 C5.515 127.505 5.515 127.505 4 127 C4.804375 126.21625 5.60875 125.4325 6.4375 124.625 C9.57539266 121.41057337 9.96763169 120.92249693 10.125 116.4375 C10.39681568 113.16983444 10.39681568 113.16983444 9 112 C8.95936168 110.33382885 8.957279 108.66611905 9 107 C8.34 107.66 7.68 108.32 7 109 C7.495 110.051875 7.495 110.051875 8 111.125 C9.15594797 114.44835041 9.49916565 116.50584045 9 120 C6.25286006 124.08146506 3.90102704 126.9241648 -1 128 C-4.20754734 127.80754716 -6.23430999 127.58086828 -8.8125 125.625 C-11.46680572 121.99279217 -11.3039234 118.33090848 -11 114 C-9.625 111.5625 -9.625 111.5625 -8 110 C-7.34 110 -6.68 110 -6 110 C-6.33 110.680625 -6.66 111.36125 -7 112.0625 C-8.1933772 115.56804552 -8.27277977 118.3174731 -8 122 C-7.01 123.485 -7.01 123.485 -6 125 C-3.5 125.41666667 -3.5 125.41666667 -1 125 C1.93447357 122.06552643 1.46158423 118.81740544 1.625 114.875 C1.66367188 114.12089844 1.70234375 113.36679688 1.7421875 112.58984375 C1.83651031 110.72696816 1.91934662 108.86351745 2 107 C1.34 107 0.68 107 0 107 C0.02320313 108.05960937 0.04640625 109.11921875 0.0703125 110.2109375 C0.08906944 111.5989513 0.10726972 112.9869727 0.125 114.375 C0.14175781 115.07367188 0.15851563 115.77234375 0.17578125 116.4921875 C0.19344267 118.32897486 0.10303261 120.16601963 0 122 C-0.66 122.66 -1.32 123.32 -2 124 C-3.32 124 -4.64 124 -6 124 C-7.50662097 120.98675805 -7.17770373 118.31713623 -7 115 C-6.34 114.34 -5.68 113.68 -5 113 C-5 111.68 -5 110.36 -5 109 C-6.32 109 -7.64 109 -9 109 C-9.66 109.66 -10.32 110.32 -11 111 C-11 109.68 -11 108.36 -11 107 C-11.66 107 -12.32 107 -13 107 C-12.9123127 109.37662822 -12.80536886 111.74983127 -12.6875 114.125 C-12.65366211 115.12273437 -12.65366211 115.12273437 -12.61914062 116.140625 C-12.37010123 120.75917371 -11.31599822 124.01375105 -9 128 C-14.75 128.125 -14.75 128.125 -17 127 C-17 125.68 -17 124.36 -17 123 C-17.66 123.99 -18.32 124.98 -19 126 C-19.99 126 -20.98 126 -22 126 C-22 126.66 -22 127.32 -22 128 C-25.88887793 127.45987807 -27.92183478 126.35992667 -31 124 C-31.99 124 -32.98 124 -34 124 C-34 122.02 -34 120.04 -34 118 C-34.66 118 -35.32 118 -36 118 C-36 119.98 -36 121.96 -36 124 C-37.65 124 -39.3 124 -41 124 C-41 124.66 -41 125.32 -41 126 C-39.7625 125.773125 -38.525 125.54625 -37.25 125.3125 C-35.140625 124.92578125 -35.140625 124.92578125 -33 125 C-31.68 125.99 -30.36 126.98 -29 128 C-44.18 128 -59.36 128 -75 128 C-74.34 125.03 -73.68 122.06 -73 119 C-71.68 119.33 -70.36 119.66 -69 120 C-66.40626086 120.06898242 -63.84189803 120.09434752 -61.25 120.0625 C-60.55261719 120.05798828 -59.85523437 120.05347656 -59.13671875 120.04882812 C-57.42444197 120.0371002 -55.71220967 120.01916653 -54 120 C-54 119.34 -54 118.68 -54 118 C-52.9275 117.9175 -51.855 117.835 -50.75 117.75 C-46.97392088 117.37205615 -46.97392088 117.37205615 -45.0625 114.9375 C-42.63312557 112.65536038 -41.96487036 112.73310926 -38.75 112.75 C-37.5125 112.8325 -36.275 112.915 -35 113 C-34.95875 112.278125 -34.9175 111.55625 -34.875 110.8125 C-33.6868685 106.99350589 -31.37449542 104.96519339 -28 103 C-26.453125 102.7834375 -26.453125 102.7834375 -24.875 102.5625 C-21.69167137 102.26919914 -21.69167137 102.26919914 -19.75 99.0625 C-19.1725 98.051875 -18.595 97.04125 -18 96 C-17.34 95.34 -16.68 94.68 -16 94 C-15.60235737 92.01178687 -15.26224651 90.01055661 -15 88 C-16.32 87.67 -17.64 87.34 -19 87 C-18.01 86.67 -17.02 86.34 -16 86 C-16 85.34 -16 84.68 -16 84 C-16.99 83.67 -17.98 83.34 -19 83 C-17.02 82.505 -17.02 82.505 -15 82 C-15.02320313 81.25234375 -15.04640625 80.5046875 -15.0703125 79.734375 C-15.08835938 78.74953125 -15.10640625 77.7646875 -15.125 76.75 C-15.14820313 75.77546875 -15.17140625 74.8009375 -15.1953125 73.796875 C-14.99862781 70.9803502 -14.44568916 69.39050964 -13 67 C-9.63408134 68.44253657 -7.48952921 70.33264727 -5 73 C-1.24096002 71.74698667 1.1626201 70.5339644 3 67 C4.93181217 53.2823613 0.79610216 40.75159332 -6 29 C-6.556875 28.2678125 -7.11375 27.535625 -7.6875 26.78125 C-9 25 -9 25 -9 23 C-10.98 23 -12.96 23 -15 23 C-15 22.67 -15 22.34 -15 22 C-8.73 22 -2.46 22 4 22 C4 16.72 4 11.44 4 6 C2.68 6.33 1.36 6.66 0 7 C-0.495 6.505 -0.495 6.505 -1 6 C-2.68183948 5.76712992 -4.3712416 5.58735834 -6.0625 5.4375 C-6.98160156 5.35371094 -7.90070313 5.26992188 -8.84765625 5.18359375 C-9.55792969 5.12300781 -10.26820313 5.06242187 -11 5 C-11 4.67 -11 4.34 -11 4 C-7.37 4 -3.74 4 0 4 C0 2.68 0 1.36 0 0 Z " fill="#12251F" transform="translate(156,37)"/>
<path d="M0 0 C3.0625 0.3125 3.0625 0.3125 4.9375 1.375 C6.0625 3.3125 6.0625 3.3125 6.0625 10.3125 C14.3125 10.3125 22.5625 10.3125 31.0625 10.3125 C31.0625 8.0025 31.0625 5.6925 31.0625 3.3125 C32.1875 1.375 32.1875 1.375 34.0625 0.3125 C37.18061483 -0.07726435 39.17269567 -0.19172245 41.9375 1.375 C43.64446395 4.31477124 43.25049766 6.99120803 43.0625 10.3125 C43.66578125 10.25449219 44.2690625 10.19648437 44.890625 10.13671875 C51.27718476 9.77618715 51.27718476 9.77618715 54.625 12.0625 C56.0625 15.3125 56.0625 15.3125 56.0625 27.3125 C31.3125 27.3125 6.5625 27.3125 -18.9375 27.3125 C-18.9375 15.3125 -18.9375 15.3125 -14.9375 11.3125 C-12.578125 10.921875 -12.578125 10.921875 -10.1875 11.0625 C-9.38828125 11.09859375 -8.5890625 11.1346875 -7.765625 11.171875 C-6.86070313 11.24148437 -6.86070313 11.24148437 -5.9375 11.3125 C-5.88851562 10.68601562 -5.83953125 10.05953125 -5.7890625 9.4140625 C-5.71429688 8.59679687 -5.63953125 7.77953125 -5.5625 6.9375 C-5.45808594 5.71933594 -5.45808594 5.71933594 -5.3515625 4.4765625 C-4.67477364 0.939383 -3.49791701 0.37211883 0 0 Z " fill="#11B892" transform="translate(77.9375,55.6875)"/>
<path d="M0 0 C0.33 0 0.66 0 1 0 C1 5.94 1 11.88 1 18 C-2.465 16.02 -2.465 16.02 -6 14 C-6.66 14 -7.32 14 -8 14 C-7.00468637 16.22031501 -6.28006422 17.76808242 -4.38671875 19.3359375 C-3 21 -3 21 -3.0390625 23.26953125 C-3.93376503 27.15254023 -4.71476333 30.47340922 -6.625 34 C-8.61606591 38.3441438 -8.69454456 42.2984676 -8 47 C-6.33423586 50.33152829 -5.05685687 52.2734109 -2 54.375 C0.28708968 55.19885 0.28708968 55.19885 4 55 C3.15115234 54.27683594 3.15115234 54.27683594 2.28515625 53.5390625 C1.55167969 52.90742188 0.81820313 52.27578125 0.0625 51.625 C-0.66839844 50.99851563 -1.39929688 50.37203125 -2.15234375 49.7265625 C-4 48 -4 48 -5 46 C-4.75853237 38.3937696 -2.4064017 32.7385205 1 26 C1.38285156 25.23300781 1.76570313 24.46601563 2.16015625 23.67578125 C2.57587891 22.84626953 2.57587891 22.84626953 3 22 C2.85978195 24.64624284 2.71310224 27.29184578 2.5625 29.9375 C2.52318359 30.69224609 2.48386719 31.44699219 2.44335938 32.22460938 C2.11328125 37.88671875 2.11328125 37.88671875 1 39 C0.41830137 43.61544489 0.3758323 47.00133167 2.875 51 C4.83637134 53.03791396 4.83637134 53.03791396 7 54 C6.67 53.38125 6.34 52.7625 6 52.125 C4.59612316 47.73788488 4.84032477 43.56848573 5 39 C5.66 39 6.32 39 7 39 C7.12117188 39.90363281 7.24234375 40.80726563 7.3671875 41.73828125 C7.53476562 42.91777344 7.70234375 44.09726563 7.875 45.3125 C8.03742187 46.48425781 8.19984375 47.65601563 8.3671875 48.86328125 C8.82300621 52.14530895 8.82300621 52.14530895 11 55 C13.07419214 55.46396516 13.07419214 55.46396516 15.46484375 55.3984375 C16.34720703 55.40230469 17.22957031 55.40617187 18.13867188 55.41015625 C19.06228516 55.39855469 19.98589844 55.38695312 20.9375 55.375 C21.85724609 55.38660156 22.77699219 55.39820313 23.72460938 55.41015625 C24.60826172 55.40628906 25.49191406 55.40242188 26.40234375 55.3984375 C27.21179443 55.39505371 28.02124512 55.39166992 28.85522461 55.38818359 C31.52207977 54.90550861 32.41239596 54.17237835 34 52 C34.42196743 47.44275172 33.99584278 44.11642574 32 40 C32.66 39.67 33.32 39.34 34 39 C35.79275866 42.11910856 36.34290718 44.67682428 36.625 48.25 C36.69976562 49.14203125 36.77453125 50.0340625 36.8515625 50.953125 C36.90054688 51.62859375 36.94953125 52.3040625 37 53 C38.90608098 49.78817851 39.22266247 47.46117397 39.125 43.75 C39.10695312 42.85796875 39.08890625 41.9659375 39.0703125 41.046875 C39.04710937 40.37140625 39.02390625 39.6959375 39 39 C39.99 39.495 39.99 39.495 41 40 C41 41.65 41 43.3 41 45 C42.65 44.34 44.3 43.68 46 43 C46 43.66 46 44.32 46 45 C45.1028125 45.2784375 45.1028125 45.2784375 44.1875 45.5625 C40.90018201 47.72273753 40.35145313 50.35107655 39 54 C39.99 54 40.98 54 42 54 C43.95216435 52.04783565 44.84826645 50.46800047 46 48 C45.67 50.31 45.34 52.62 45 55 C46.97536745 54.65213292 46.97536745 54.65213292 49 54 C50.21693876 51.56612247 50.31959896 49.58161154 50.5625 46.875 C50.68818359 45.50988281 50.68818359 45.50988281 50.81640625 44.1171875 C50.87699219 43.41851562 50.93757813 42.71984375 51 42 C51.66 42.99 52.32 43.98 53 45 C57.54981205 46.45280805 62.56818136 46.33408371 67.3125 46.5625 C68.14845703 46.60568359 68.98441406 46.64886719 69.84570312 46.69335938 C71.89696935 46.79885307 73.9484648 46.89987315 76 47 C72.25380451 49.40826853 68.87270385 49.26721537 64.5 49.25 C63.1903125 49.25515625 61.880625 49.2603125 60.53125 49.265625 C57.34757928 49.02614534 55.63897471 48.69648375 53 47 C52.67 49.64 52.34 52.28 52 55 C66.19 55 80.38 55 95 55 C91.33418546 54.26683709 88.63300168 53.89619995 85 54 C85 53.34 85 52.68 85 52 C86.65 52 88.3 52 90 52 C90 50.02 90 48.04 90 46 C90.66 46 91.32 46 92 46 C92 47.98 92 49.96 92 52 C92.5775 51.7525 93.155 51.505 93.75 51.25 C94.4925 51.1675 95.235 51.085 96 51 C97.37562854 52.28965176 98.70766393 53.62689293 100 55 C102.1381966 55.7872678 102.1381966 55.7872678 104 56 C104 55.34 104 54.68 104 54 C104.99 54 105.98 54 107 54 C107.66 52.35 108.32 50.7 109 49 C110 52 110 52 109 55 C111.31 55 113.62 55 116 55 C115.50886719 54.33613281 115.01773438 53.67226562 114.51171875 52.98828125 C112.64894964 49.30606324 112.66255318 46.2053057 112.8125 42.1875 C112.83280273 41.14819336 112.83280273 41.14819336 112.85351562 40.08789062 C112.88861155 38.39158735 112.94241057 36.69568864 113 35 C113.66 35 114.32 35 115 35 C115.33 35.66 115.66 36.32 116 37 C118.475 36.505 118.475 36.505 121 36 C121.625 38.375 121.625 38.375 122 41 C121.01 41.99 121.01 41.99 120 43 C119.75746187 45.21072977 119.75746187 45.21072977 119.875 47.625 C119.89304688 48.44226563 119.91109375 49.25953125 119.9296875 50.1015625 C119.95289063 50.72804687 119.97609375 51.35453125 120 52 C121.65 51.34 123.3 50.68 125 50 C125.33 45.05 125.66 40.1 126 35 C126.66 35 127.32 35 128 35 C128.0809313 37.60478883 128.14045434 40.20706653 128.1875 42.8125 C128.21263672 43.55048828 128.23777344 44.28847656 128.26367188 45.04882812 C128.33774501 50.50554909 128.33774501 50.50554909 126.64453125 52.984375 C124.24579822 54.46577782 122.75896397 54.48281869 120 54 C117.27556936 51.6513529 117.01653163 50.15153994 116.625 46.5625 C117.0150702 42.85683313 117.833226 40.97931425 120 38 C116.92946618 40.39885455 116.06373087 41.49925747 115.5625 45.4375 C116.02790953 49.22726328 116.47682856 51.1404057 119 54 C122.71984655 55.32261211 124.48128575 55.19324648 128.1875 53.8125 C130.98518888 52.00954495 132.48640402 50.9431033 134 48 C134.48395433 43.54762014 133.58266262 40.15448937 132 36 C132.99 35.67 133.98 35.34 135 35 C136.75954753 39.50884055 137.51828487 43.16267452 137 48 C135 51.4375 135 51.4375 133 54 C134.91466367 53.87822312 134.91466367 53.87822312 137 53 C139.91305996 49.11592005 140.44540136 45.98105306 140.6875 41.1875 C140.78611328 39.44533203 140.78611328 39.44533203 140.88671875 37.66796875 C140.92410156 36.78753906 140.96148437 35.90710938 141 35 C143.60677148 39.54352941 143.83042869 43.8723044 143 49 C141.58042494 51.51269731 140.12158749 52.98449188 138 55 C142.29 55.33 146.58 55.66 151 56 C151 56.66 151 57.32 151 58 C96.22 58 41.44 58 -15 58 C-15 57.34 -15 56.68 -15 56 C-10.545 55.505 -10.545 55.505 -6 55 C-6.825 54.278125 -7.65 53.55625 -8.5 52.8125 C-11.94149281 48.68466959 -11.62373392 44.36127787 -11.44140625 39.19140625 C-10.92570284 35.46282495 -9.79290106 32.91043181 -7.90625 29.703125 C-6.46114006 26.98731494 -6.46891789 24.98733685 -7 22 C-7.680625 21.154375 -8.36125 20.30875 -9.0625 19.4375 C-11 17 -11 17 -10.75 14.1875 C-10.5025 13.465625 -10.255 12.74375 -10 12 C-6.625 11.875 -6.625 11.875 -3 12 C-2.34 12.66 -1.68 13.32 -1 14 C-0.67 9.38 -0.34 4.76 0 0 Z " fill="#092820" transform="translate(30,109)"/>
<path d="M0 0 C1.52634923 3.05269846 0.83794444 5.75845689 0.5625 9.125 C0.46066406 10.40632813 0.35882813 11.68765625 0.25390625 13.0078125 C0.17011719 13.99523437 0.08632812 14.98265625 0 16 C-0.33 16 -0.66 16 -1 16 C-1 13.36 -1 10.72 -1 8 C-2.43791516 8.14168137 -3.8753237 8.28851043 -5.3125 8.4375 C-6.11300781 8.51871094 -6.91351563 8.59992188 -7.73828125 8.68359375 C-10.16087179 8.95265693 -10.16087179 8.95265693 -13 10 C-13.33 14.62 -13.66 19.24 -14 24 C10.75 24 35.5 24 61 24 C60.67 19.38 60.34 14.76 60 10 C56.04 9.67 52.08 9.34 48 9 C48 8.67 48 8.34 48 8 C49.5561547 7.69481238 51.12070108 7.43224085 52.6875 7.1875 C53.55761719 7.03667969 54.42773438 6.88585937 55.32421875 6.73046875 C58.35747795 7.03600873 59.84922433 7.84816617 61.93876648 10.06632996 C64.44685478 14.63630925 63.68161179 20.40781987 63.62890625 25.47265625 C63.63131821 26.78785751 63.63373016 28.10305878 63.63621521 29.45811462 C63.63906799 32.23647098 63.62442338 35.01401882 63.59692383 37.79223633 C63.56280647 41.3490982 63.56887401 44.90451828 63.5875864 48.46144962 C63.60070788 51.86116151 63.5824408 55.26045443 63.56640625 58.66015625 C63.57384605 60.57430077 63.57384605 60.57430077 63.58143616 62.52711487 C63.56559982 63.7119194 63.54976349 64.89672394 63.53344727 66.11743164 C63.52724869 67.15936172 63.52105011 68.20129181 63.5146637 69.27479553 C62.87102108 72.68295846 61.65843435 73.84591164 59 76 C56.19931963 77.40034018 53.87905422 77.13498646 50.74609375 77.14526367 C49.43133057 77.15164352 48.11656738 77.15802338 46.76196289 77.16459656 C45.32047563 77.166125 43.87898788 77.16723908 42.4375 77.16796875 C40.96541308 77.17118055 39.49332648 77.17454456 38.02124023 77.17805481 C34.93440002 77.18404683 31.84758781 77.18589459 28.76074219 77.18530273 C24.79929862 77.185201 20.83803383 77.19886468 16.87663269 77.21607494 C13.83637664 77.22717487 10.79616413 77.22922258 7.75588989 77.22869301 C6.29500715 77.22987572 4.83412337 77.23431373 3.3732605 77.24202538 C1.33349908 77.25178623 -0.70631456 77.24769314 -2.74609375 77.24291992 C-3.90810303 77.24434494 -5.0701123 77.24576996 -6.26733398 77.24723816 C-9 77 -9 77 -11 75 C-8.1696888 73.5848444 -5.81889272 73.8960752 -2.65429688 73.91821289 C-2.00372818 73.92127945 -1.35315948 73.92434601 -0.68287659 73.92750549 C0.73091354 73.93466387 2.14469369 73.94405561 3.55845642 73.95540047 C5.79390114 73.97275446 8.02927476 73.98307795 10.26477051 73.99131775 C16.62108086 74.01580688 22.97729529 74.05141061 29.33349609 74.09594727 C33.21963365 74.12268412 37.10571584 74.1397567 40.9919281 74.15081596 C42.4751541 74.15703728 43.95836908 74.16705688 45.44154358 74.18089485 C47.5125334 74.20004632 49.58323063 74.2069978 51.65429688 74.21118164 C52.83407104 74.21863907 54.01384521 74.2260965 55.22937012 74.23377991 C58.14205316 74.28804688 58.14205316 74.28804688 60 72 C60.32889388 70.14463576 60.32889388 70.14463576 60.31884766 68.00927734 C60.33890869 67.17710693 60.35896973 66.34493652 60.37963867 65.48754883 C60.39099854 64.61251709 60.4023584 63.73748535 60.4140625 62.8359375 C60.43170654 62.03196533 60.44935059 61.22799316 60.4675293 60.3996582 C60.5306741 57.39164359 60.57680704 54.38329131 60.625 51.375 C60.74875 44.65125 60.8725 37.9275 61 31 C35.92 31 10.84 31 -15 31 C-14.63143304 43.46098488 -14.63143304 43.46098488 -14.25170898 55.92163086 C-14.20776409 57.4776904 -14.16419924 59.03376073 -14.12109375 60.58984375 C-14.09438599 61.40521606 -14.06767822 62.22058838 -14.04016113 63.06066895 C-13.98776058 65.03979765 -13.9880566 67.02021375 -14 69 C-15 70 -15 70 -18.375 70.1875 C-22 70 -22 70 -25 68 C-25.33 70.97 -25.66 73.94 -26 77 C-26.33 77 -26.66 77 -27 77 C-27 73.7 -27 70.4 -27 67 C-29.97 67 -32.94 67 -36 67 C-36.99 63.535 -36.99 63.535 -38 60 C-36.35 60 -34.7 60 -33 60 C-33 60.66 -33 61.32 -33 62 C-32.01 62 -31.02 62 -30 62 C-30 61.34 -30 60.68 -30 60 C-28.35 60 -26.7 60 -25 60 C-25.33 60.99 -25.66 61.98 -26 63 C-27.32 63 -28.64 63 -30 63 C-30 63.66 -30 64.32 -30 65 C-27.36 65.33 -24.72 65.66 -22 66 C-22 60.72 -22 55.44 -22 50 C-21.67 50 -21.34 50 -21 50 C-21 55.94 -21 61.88 -21 68 C-19.35 68 -17.7 68 -16 68 C-16.01110306 67.30953079 -16.02220612 66.61906158 -16.03364563 65.90766907 C-16.14425947 58.72153661 -16.2196765 51.53564594 -16.2746582 44.34887695 C-16.29697994 41.66661546 -16.33176794 38.9849458 -16.37719727 36.30297852 C-16.43784525 32.44790745 -16.46621127 28.5937423 -16.48828125 24.73828125 C-16.51408768 23.53915604 -16.5398941 22.34003082 -16.56648254 21.10456848 C-16.5696071 11.83166759 -16.5696071 11.83166759 -13.63671875 8.734375 C-10.65585533 6.77362928 -9.21088787 6.45260748 -5.6875 6.6875 C-4.80449219 6.73261719 -3.92148438 6.77773437 -3.01171875 6.82421875 C-2.34785156 6.88222656 -1.68398437 6.94023438 -1 7 C-1.020625 6.030625 -1.04125 5.06125 -1.0625 4.0625 C-1 1 -1 1 0 0 Z " fill="#1D2724" transform="translate(73,59)"/>
<path d="M0 0 C0.33 0 0.66 0 1 0 C1 11.22 1 22.44 1 34 C1.99 34 2.98 34 4 34 C5.46491606 43.08953939 5.46491606 43.08953939 3.5 46.9375 C3.005 47.618125 2.51 48.29875 2 49 C2.33 49.99 2.66 50.98 3 52 C7.34184202 51.81535634 7.34184202 51.81535634 11 50 C14.45673849 50 17.00495929 50.19911357 19.76171875 52.41796875 C23.08416438 56.06220088 24.75289965 58.93444282 25 64 C24.67 64 24.34 64 24 64 C23.81824219 64.93972656 23.81824219 64.93972656 23.6328125 65.8984375 C23.46523437 66.71570313 23.29765625 67.53296875 23.125 68.375 C22.96257812 69.18710938 22.80015625 69.99921875 22.6328125 70.8359375 C22 73 22 73 20 75 C17.875 74.625 17.875 74.625 16 74 C16 73.34 16 72.68 16 72 C15.401875 72.515625 14.80375 73.03125 14.1875 73.5625 C13.465625 74.036875 12.74375 74.51125 12 75 C10.515 74.505 10.515 74.505 9 74 C9.45375 73.443125 9.9075 72.88625 10.375 72.3125 C12.11759315 70.05663428 12.11759315 70.05663428 12.9375 67.3125 C14 65 14 65 16.125 64.1875 C16.74375 64.125625 17.3625 64.06375 18 64 C18 63.34 18 62.68 18 62 C16.35 62.66 14.7 63.32 13 64 C12.67 63.01 12.34 62.02 12 61 C12.0928125 62.5778125 12.0928125 62.5778125 12.1875 64.1875 C11.9922214 68.15816493 11.29674932 69.84196969 9 73 C7.56549973 70.13099945 7.62088917 67.26527087 7.37890625 64.09375 C7.16681223 61.78688902 7.16681223 61.78688902 5 60 C5.33 60.515625 5.66 61.03125 6 61.5625 C7.37498501 64.91402596 7.38467994 67.40965387 7 71 C5.6484375 73.203125 5.6484375 73.203125 3 75 C-0.59462706 75.49507297 -4.13032811 75.37531487 -7.75 75.25 C-8.73355469 75.23195313 -9.71710937 75.21390625 -10.73046875 75.1953125 C-13.15463783 75.14824126 -15.57682059 75.08250742 -18 75 C-18.33 74.34 -18.66 73.68 -19 73 C-18.34 73 -17.68 73 -17 73 C-17.12375 72.0925 -17.2475 71.185 -17.375 70.25 C-17.42403662 64.25527318 -13.78304904 59.11186987 -11 54 C-10.32718395 52.66975912 -9.65771191 51.33777325 -9 50 C-9.66 49.01 -10.32 48.02 -11 47 C-9.35 47.33 -7.7 47.66 -6 48 C-6 47.34 -6 46.68 -6 46 C-6.66 46 -7.32 46 -8 46 C-8 45.01 -8 44.02 -8 43 C-6.88625 43.2784375 -6.88625 43.2784375 -5.75 43.5625 C-3.05009037 43.99203108 -1.55368923 43.85122974 1 43 C0.34 44.32 -0.32 45.64 -1 47 C-0.34 47 0.32 47 1 47 C1.89592957 43.95383946 2.13685668 42.37619997 1.03564453 39.34912109 C-0.19995604 35.35337177 -0.25173088 31.67367674 -0.1953125 27.5390625 C-0.1924826 26.74849457 -0.18965271 25.95792664 -0.18673706 25.1434021 C-0.17560955 22.63710916 -0.15051926 20.13118355 -0.125 17.625 C-0.11496058 15.91797394 -0.10583641 14.21094223 -0.09765625 12.50390625 C-0.07569463 8.3357976 -0.04121671 4.16796092 0 0 Z " fill="#26322D" transform="translate(58,90)"/>
<path d="M0 0 C4.13081964 3.04425484 6.09702912 7.54419138 7.72265625 12.26953125 C8.32991955 17.51600369 8.87964289 23.25937539 5.97265625 27.89453125 C3.89515608 30.0874481 2.6106502 31.43108139 -0.27734375 32.26953125 C-1.76234375 31.77453125 -1.76234375 31.77453125 -3.27734375 31.26953125 C-2.47296875 30.48578125 -1.66859375 29.70203125 -0.83984375 28.89453125 C2.29804891 25.68010462 2.69028794 25.19202818 2.84765625 20.70703125 C3.11947193 17.43936569 3.11947193 17.43936569 1.72265625 16.26953125 C1.68201793 14.6033601 1.67993525 12.9356503 1.72265625 11.26953125 C1.06265625 11.92953125 0.40265625 12.58953125 -0.27734375 13.26953125 C0.05265625 13.97078125 0.38265625 14.67203125 0.72265625 15.39453125 C1.87860422 18.71788166 2.2218219 20.7753717 1.72265625 24.26953125 C-1.02448369 28.35099631 -3.37631671 31.19369605 -8.27734375 32.26953125 C-11.48489109 32.07707841 -13.51165374 31.85039953 -16.08984375 29.89453125 C-18.74414947 26.26232342 -18.58126715 22.60043973 -18.27734375 18.26953125 C-16.90234375 15.83203125 -16.90234375 15.83203125 -15.27734375 14.26953125 C-14.61734375 14.26953125 -13.95734375 14.26953125 -13.27734375 14.26953125 C-13.77234375 15.29046875 -13.77234375 15.29046875 -14.27734375 16.33203125 C-15.47072095 19.83757677 -15.55012352 22.58700435 -15.27734375 26.26953125 C-14.61734375 27.25953125 -13.95734375 28.24953125 -13.27734375 29.26953125 C-10.77734375 29.68619792 -10.77734375 29.68619792 -8.27734375 29.26953125 C-5.34287018 26.33505768 -5.81575952 23.08693669 -5.65234375 19.14453125 C-5.61367187 18.39042969 -5.575 17.63632813 -5.53515625 16.859375 C-5.44083344 14.99649941 -5.35799713 13.1330487 -5.27734375 11.26953125 C-5.93734375 11.26953125 -6.59734375 11.26953125 -7.27734375 11.26953125 C-7.25414062 12.32914063 -7.2309375 13.38875 -7.20703125 14.48046875 C-7.18827431 15.86848255 -7.17007403 17.25650395 -7.15234375 18.64453125 C-7.13558594 19.34320313 -7.11882812 20.041875 -7.1015625 20.76171875 C-7.08390108 22.59850611 -7.17431114 24.43555088 -7.27734375 26.26953125 C-7.93734375 26.92953125 -8.59734375 27.58953125 -9.27734375 28.26953125 C-10.59734375 28.26953125 -11.91734375 28.26953125 -13.27734375 28.26953125 C-14.78396472 25.2562893 -14.45504748 22.58666748 -14.27734375 19.26953125 C-13.61734375 18.60953125 -12.95734375 17.94953125 -12.27734375 17.26953125 C-12.27734375 15.94953125 -12.27734375 14.62953125 -12.27734375 13.26953125 C-13.59734375 13.26953125 -14.91734375 13.26953125 -16.27734375 13.26953125 C-16.93734375 13.92953125 -17.59734375 14.58953125 -18.27734375 15.26953125 C-18.27734375 13.94953125 -18.27734375 12.62953125 -18.27734375 11.26953125 C-18.93734375 11.26953125 -19.59734375 11.26953125 -20.27734375 11.26953125 C-20.18965645 13.64615947 -20.08271261 16.01936252 -19.96484375 18.39453125 C-19.94228516 19.0596875 -19.91972656 19.72484375 -19.89648438 20.41015625 C-19.64744498 25.02870496 -18.59334197 28.2832823 -16.27734375 32.26953125 C-22.02734375 32.39453125 -22.02734375 32.39453125 -24.27734375 31.26953125 C-24.11234375 30.63015625 -23.94734375 29.99078125 -23.77734375 29.33203125 C-22.8522912 23.66608436 -22.12074977 18.5882774 -25.33984375 13.58203125 C-27.27734375 10.26953125 -27.27734375 10.26953125 -27.46484375 7.20703125 C-25.78827818 3.05973746 -23.02456612 0.65130613 -19.27734375 -1.73046875 C-12.63835476 -3.92146711 -6.07607552 -3.41854746 0 0 Z " fill="#93C8B8" transform="translate(163.27734375,132.73046875)"/>
<path d="M0 0 C0.99 0.33 1.98 0.66 3 1 C2.67 1.66 2.34 2.32 2 3 C3.48716386 3 4.97438027 2.97216056 6.4609375 2.9296875 C7.42257813 2.91164063 8.38421875 2.89359375 9.375 2.875 C10.80972656 2.84019531 10.80972656 2.84019531 12.2734375 2.8046875 C15 3 15 3 19 5 C19 7.97 19 10.94 19 14 C16.36 13.67 13.72 13.34 11 13 C11 12.34 11 11.68 11 11 C11.639375 10.87625 12.27875 10.7525 12.9375 10.625 C13.618125 10.41875 14.29875 10.2125 15 10 C15.33 9.34 15.66 8.68 16 8 C15.01 8.33 14.02 8.66 13 9 C12.34 8.67 11.68 8.34 11 8 C11 8.66 11 9.32 11 10 C10.01 10 9.02 10 8 10 C8 9.34 8 8.68 8 8 C6.35 8 4.7 8 3 8 C3.99 9.485 3.99 9.485 5 11 C5 12.32 5 13.64 5 15 C7.97 15 10.94 15 14 15 C14.33 16.98 14.66 18.96 15 21 C15.33 19.35 15.66 17.7 16 16 C16.99 16.33 17.98 16.66 19 17 C23.654797 17.3053818 23.654797 17.3053818 28 16 C29.25 23.625 29.25 23.625 27 27 C26.01 26.67 25.02 26.34 24 26 C24.99 24.68 25.98 23.36 27 22 C26.01 22 25.02 22 24 22 C23.67 22.66 23.34 23.32 23 24 C21.35 23.34 19.7 22.68 18 22 C18 22.99 18 23.98 18 25 C18.66 25 19.32 25 20 25 C20 25.66 20 26.32 20 27 C18.68 27 17.36 27 16 27 C16.66 27.99 17.32 28.98 18 30 C17.59007813 30.66386719 17.18015625 31.32773438 16.7578125 32.01171875 C15.94957031 33.33623047 15.94957031 33.33623047 15.125 34.6875 C14.59132813 35.55761719 14.05765625 36.42773438 13.5078125 37.32421875 C10.76496939 42.1916994 9.65325599 46.44732404 9 52 C8.34 52 7.68 52 7 52 C4.89571616 46.87080814 4.78244334 42.4389165 5 37 C4.34 37 3.68 37 3 37 C3.66 41.95 4.32 46.9 5 52 C-0.27586207 49.36206897 -0.27586207 49.36206897 -2 46 C-2.429376 41.76757945 -2.34853459 38.04560377 -1 34 C0.19672107 26.83641091 0.11427235 19.74812854 0.0625 12.5 C0.05798828 11.29601562 0.05347656 10.09203125 0.04882812 8.8515625 C0.0371195 5.90098927 0.02071995 2.95052141 0 0 Z " fill="#03715E" transform="translate(32,111)"/>
<path d="M0 0 C3.0625 0.3125 3.0625 0.3125 4.9375 1.375 C6.0625 3.3125 6.0625 3.3125 6.0625 10.3125 C14.3125 10.3125 22.5625 10.3125 31.0625 10.3125 C31.0625 8.0025 31.0625 5.6925 31.0625 3.3125 C32.1875 1.375 32.1875 1.375 34.0625 0.3125 C37.18061483 -0.07726435 39.17269567 -0.19172245 41.9375 1.375 C43.64446395 4.31477124 43.25049766 6.99120803 43.0625 10.3125 C46.0325 10.3125 49.0025 10.3125 52.0625 10.3125 C52.0625 10.6425 52.0625 10.9725 52.0625 11.3125 C49.0925 11.3125 46.1225 11.3125 43.0625 11.3125 C43.11470703 12.34310547 43.11470703 12.34310547 43.16796875 13.39453125 C43.19503906 14.29558594 43.22210938 15.19664063 43.25 16.125 C43.30220703 17.46498047 43.30220703 17.46498047 43.35546875 18.83203125 C43.0625 21.3125 43.0625 21.3125 41.73828125 23.109375 C39.11595482 24.9920709 37.18777449 24.7682692 34.0625 24.3125 C32.1875 22.875 32.1875 22.875 31.0625 20.3125 C31.0625 17.3425 31.0625 14.3725 31.0625 11.3125 C22.8125 11.3125 14.5625 11.3125 6.0625 11.3125 C6.0625 14.6125 6.0625 17.9125 6.0625 21.3125 C3.0625 24.3125 3.0625 24.3125 0.0625 24.8125 C-2.9375 24.3125 -2.9375 24.3125 -4.63671875 22.32421875 C-6.39814523 18.24596104 -6.11617522 14.98581401 -5.75 10.625 C-5.70552734 9.85349609 -5.66105469 9.08199219 -5.61523438 8.28710938 C-5.06711875 0.53905519 -5.06711875 0.53905519 0 0 Z " fill="#09110F" transform="translate(77.9375,55.6875)"/>
<path d="M0 0 C0.66 0 1.32 0 2 0 C2.07410115 5.78406969 2.12857885 11.56786371 2.16479492 17.35229492 C2.17989082 19.32044283 2.20036948 21.28855706 2.22631836 23.2565918 C2.26266649 26.08390612 2.27971814 28.9107761 2.29296875 31.73828125 C2.30845261 32.61962234 2.32393646 33.50096344 2.33988953 34.40901184 C2.34011612 35.22963608 2.34034271 36.05026031 2.34057617 36.89575195 C2.35056892 37.97830009 2.35056892 37.97830009 2.36076355 39.0827179 C2 41 2 41 0.88241577 42.73324585 C-1.90047669 44.6059674 -4.12571909 44.37409628 -7.45922852 44.37231445 C-8.10994324 44.37596512 -8.76065796 44.37961578 -9.43109131 44.38337708 C-11.58062894 44.39147916 -13.72941196 44.37787777 -15.87890625 44.36328125 C-17.37198384 44.36276266 -18.86506212 44.36328032 -20.35813904 44.36479187 C-23.48617759 44.36470217 -26.6139583 44.3542757 -29.74194336 44.33618164 C-33.75608145 44.31347471 -37.76984339 44.31295403 -41.78402805 44.31969929 C-44.86634173 44.32303657 -47.94856927 44.3164141 -51.03086662 44.30657005 C-52.51127611 44.30271506 -53.99169518 44.30157107 -55.47210884 44.3031559 C-57.53831457 44.30352576 -59.60403328 44.29093012 -61.67016602 44.2746582 C-62.84692398 44.27005081 -64.02368195 44.26544342 -65.23609924 44.26069641 C-68 44 -68 44 -70 42 C-70.125 38.375 -70.125 38.375 -70 35 C-69.67 35 -69.34 35 -69 35 C-69 36.65 -69 38.3 -69 40 C-62.87994905 39.90604515 -56.76027421 39.79985921 -50.640625 39.68261719 C-48.56125612 39.64446956 -46.48182445 39.60959255 -44.40234375 39.578125 C-41.40341842 39.53216446 -38.40492012 39.47422236 -35.40625 39.4140625 C-34.02451599 39.39673569 -34.02451599 39.39673569 -32.61486816 39.37905884 C-27.08961032 39.25434674 -22.33213691 38.42459926 -17 37 C-16.67 37.33 -16.34 37.66 -16 38 C-14.04583843 38.20999945 -12.08599701 38.36832634 -10.125 38.5 C-6.81281812 38.72347251 -4.15623804 38.94792065 -1 40 C-0.67 26.8 -0.34 13.6 0 0 Z " fill="#A6DCC4" transform="translate(132,90)"/>
<path d="M0 0 C3.39572929 0.0893613 4.682503 0.67288188 7.0625 3.125 C8.0215625 4.548125 8.0215625 4.548125 9 6 C9.37511719 6.54140625 9.75023438 7.0828125 10.13671875 7.640625 C12.8087403 11.80335331 13.76223767 14.95017544 13 20 C11.41015625 22.1796875 11.41015625 22.1796875 9 24 C5.65234375 24.49609375 5.65234375 24.49609375 1.9375 24.4375 C0.09478516 24.43556641 0.09478516 24.43556641 -1.78515625 24.43359375 C-5 24 -5 24 -6.8984375 22.7265625 C-9.07516795 19.31480768 -8.75129201 15.86885808 -8 12 C-5.92899462 7.55398845 -3.47676544 3.47676544 0 0 Z " fill="#E6ECDC" transform="translate(52,141)"/>
<path d="M0 0 C0.33 0 0.66 0 1 0 C1.33 15.84 1.66 31.68 2 48 C2.66 48.33 3.32 48.66 4 49 C4 49.66 4 50.32 4 51 C3.01 51.495 3.01 51.495 2 52 C3.485 52.495 3.485 52.495 5 53 C5.34566587 55.90359334 5.55104134 58.12081044 3.95703125 60.6640625 C2.08659008 62.89103938 0.05538964 64.94461036 -2 67 C-4.97390747 67.24050903 -4.97390747 67.24050903 -8.83642578 67.22705078 C-9.53897491 67.22734283 -10.24152405 67.22763489 -10.96536255 67.22793579 C-13.29213731 67.22654023 -15.61859354 67.21096872 -17.9453125 67.1953125 C-19.55671005 67.19158317 -21.16810987 67.18873582 -22.7795105 67.18673706 C-27.02433514 67.17909431 -31.2690233 67.15944039 -35.51379395 67.1373291 C-39.8438126 67.11688443 -44.17385326 67.1077383 -48.50390625 67.09765625 C-57.00266686 67.07619504 -65.50131646 67.04205145 -74 67 C-73.67 68.32 -73.34 69.64 -73 71 C-74.32 70.34 -75.64 69.68 -77 69 C-76 67 -75 65 -74 63 C-73.15697327 63.00222061 -72.31394653 63.00444122 -71.44537354 63.00672913 C-63.4999032 63.02676776 -55.55444136 63.04199239 -47.60895157 63.05181217 C-43.52412081 63.05703032 -39.43931093 63.06410861 -35.35449219 63.07543945 C-31.41228785 63.08630624 -27.4701036 63.09228489 -23.52788544 63.09487724 C-22.0240014 63.09672464 -20.52011846 63.10033213 -19.01624298 63.10573006 C-16.90956752 63.11299078 -14.80297503 63.11398881 -12.69628906 63.11352539 C-11.49715881 63.115746 -10.29802856 63.11796661 -9.06256104 63.12025452 C-5.43209268 63.00248388 -5.43209268 63.00248388 -2 62 C-0.95012521 58.85037564 -0.84406158 56.55212584 -0.79467773 53.2434082 C-0.77473251 52.06241043 -0.75478729 50.88141266 -0.73423767 49.66462708 C-0.71752518 48.38955795 -0.70081268 47.11448883 -0.68359375 45.80078125 C-0.6524221 43.84279854 -0.6524221 43.84279854 -0.62062073 41.84526062 C-0.56547727 38.37817647 -0.51603405 34.91103354 -0.46777344 31.44384766 C-0.4175019 27.90456931 -0.36184537 24.36537611 -0.30664062 20.82617188 C-0.19915362 13.88418844 -0.09768773 6.94212806 0 0 Z " fill="#BAF0D6" transform="translate(136,72)"/>
<path d="M0 0 C1.32 0.66 2.64 1.32 4 2 C4 2.99 4 3.98 4 5 C3.34 4.67 2.68 4.34 2 4 C2.33 4.66 2.66 5.32 3 6 C4.093125 5.979375 5.18625 5.95875 6.3125 5.9375 C10 6 10 6 13 7 C13 6.01 13 5.02 13 4 C12.01 4.495 12.01 4.495 11 5 C11.75 3.0625 11.75 3.0625 13 1 C15.078125 0.37109375 15.078125 0.37109375 17 0 C17.19502282 2.91634122 17.38129328 5.83279545 17.5625 8.75 C17.61857422 9.575 17.67464844 10.4 17.73242188 11.25 C17.78076172 12.04921875 17.82910156 12.8484375 17.87890625 13.671875 C17.9260376 14.4050293 17.97316895 15.13818359 18.02172852 15.89355469 C18 18 18 18 17 22 C11.06 22.33 5.12 22.66 -1 23 C-1.9281427 18.35928651 -1.96155096 14.46111013 -1.625 9.8125 C-1.58117187 9.08869141 -1.53734375 8.36488281 -1.4921875 7.61914062 C-1.13375235 2.2675047 -1.13375235 2.2675047 0 0 Z " fill="#82B2A3" transform="translate(144,107)"/>
<path d="M0 0 C0.33 0 0.66 0 1 0 C1 5.94 1 11.88 1 18 C-2.465 16.02 -2.465 16.02 -6 14 C-6.66 14 -7.32 14 -8 14 C-7.00468637 16.22031501 -6.28006422 17.76808242 -4.38671875 19.3359375 C-3 21 -3 21 -3.0390625 23.26953125 C-3.93376503 27.15254023 -4.71476333 30.47340922 -6.625 34 C-8.61606591 38.3441438 -8.69454456 42.2984676 -8 47 C-6.33423586 50.33152829 -5.05685687 52.2734109 -2 54.375 C0.28708968 55.19885 0.28708968 55.19885 4 55 C3.15115234 54.27683594 3.15115234 54.27683594 2.28515625 53.5390625 C1.55167969 52.90742188 0.81820313 52.27578125 0.0625 51.625 C-0.66839844 50.99851563 -1.39929688 50.37203125 -2.15234375 49.7265625 C-4 48 -4 48 -5 46 C-4.75853237 38.3937696 -2.4064017 32.7385205 1 26 C1.38285156 25.23300781 1.76570313 24.46601563 2.16015625 23.67578125 C2.57587891 22.84626953 2.57587891 22.84626953 3 22 C2.85978195 24.64624284 2.71310224 27.29184578 2.5625 29.9375 C2.52318359 30.69224609 2.48386719 31.44699219 2.44335938 32.22460938 C2.11328125 37.88671875 2.11328125 37.88671875 1 39 C0.41830137 43.61544489 0.3758323 47.00133167 2.875 51 C4.83637134 53.03791396 4.83637134 53.03791396 7 54 C6.67 53.38125 6.34 52.7625 6 52.125 C4.59612316 47.73788488 4.84032477 43.56848573 5 39 C5.66 39 6.32 39 7 39 C7.12117188 39.90363281 7.24234375 40.80726563 7.3671875 41.73828125 C7.53476562 42.91777344 7.70234375 44.09726563 7.875 45.3125 C8.03742187 46.48425781 8.19984375 47.65601563 8.3671875 48.86328125 C8.82300621 52.14530895 8.82300621 52.14530895 11 55 C13.21932277 55.50776044 13.21932277 55.50776044 15.7890625 55.51171875 C16.73007812 55.54716797 17.67109375 55.58261719 18.640625 55.61914062 C19.62546875 55.64169922 20.6103125 55.66425781 21.625 55.6875 C22.61757813 55.72166016 23.61015625 55.75582031 24.6328125 55.79101562 C27.08842906 55.87365657 29.54368141 55.94275127 32 56 C32 56.33 32 56.66 32 57 C16.82 57 1.64 57 -14 57 C-14 56.67 -14 56.34 -14 56 C-11.36 55.67 -8.72 55.34 -6 55 C-6.825 54.278125 -7.65 53.55625 -8.5 52.8125 C-11.94149281 48.68466959 -11.62373392 44.36127787 -11.44140625 39.19140625 C-10.92570284 35.46282495 -9.79290106 32.91043181 -7.90625 29.703125 C-6.46114006 26.98731494 -6.46891789 24.98733685 -7 22 C-7.680625 21.154375 -8.36125 20.30875 -9.0625 19.4375 C-11 17 -11 17 -10.75 14.1875 C-10.5025 13.465625 -10.255 12.74375 -10 12 C-6.625 11.875 -6.625 11.875 -3 12 C-2.34 12.66 -1.68 13.32 -1 14 C-0.67 9.38 -0.34 4.76 0 0 Z " fill="#040F0B" transform="translate(30,109)"/>
<path d="M0 0 C1.60332791 -0.08121924 3.20784026 -0.13929134 4.8125 -0.1875 C6.15248047 -0.23970703 6.15248047 -0.23970703 7.51953125 -0.29296875 C10 0 10 0 13 3 C13 6.96 13 10.92 13 15 C-11.75 15 -36.5 15 -62 15 C-61.67 13.02 -61.34 11.04 -61 9 C-59.35 8.67 -57.7 8.34 -56 8 C-56 7.34 -56 6.68 -56 6 C-55.34 6 -54.68 6 -54 6 C-54 6.66 -54 7.32 -54 8 C-53.34 8 -52.68 8 -52 8 C-52 8.66 -52 9.32 -52 10 C-52.66 10 -53.32 10 -54 10 C-54 10.99 -54 11.98 -54 13 C-39.15 13.33 -24.3 13.66 -9 14 C-9 13.34 -9 12.68 -9 12 C-7.2984375 11.5359375 -7.2984375 11.5359375 -5.5625 11.0625 C-2.21224901 10.37075469 -2.21224901 10.37075469 -1 9 C-0.76807135 7.48530552 -0.58784762 5.96245438 -0.4375 4.4375 C-0.35371094 3.61121094 -0.26992187 2.78492187 -0.18359375 1.93359375 C-0.09271484 0.97646484 -0.09271484 0.97646484 0 0 Z " fill="#0A5845" transform="translate(121,68)"/>
<path d="M0 0 C24.75 0 49.5 0 75 0 C75 1.32 75 2.64 75 4 C50.25 4 25.5 4 0 4 C0 2.68 0 1.36 0 0 Z " fill="#36BD9F" transform="translate(59,84)"/>
<path d="M0 0 C6.6 0 13.2 0 20 0 C20 4.95 20 9.9 20 15 C13.4 15 6.8 15 0 15 C0 10.05 0 5.1 0 0 Z " fill="#90C3B4" transform="translate(140,43)"/>
<path d="M0 0 C6.27 0 12.54 0 19 0 C19 4.95 19 9.9 19 15 C12.73 15 6.46 15 0 15 C0 10.05 0 5.1 0 0 Z " fill="#97CABA" transform="translate(33,43)"/>
<path d="M0 0 C4.20508005 1.57690502 5.51040535 3.05185633 7.62109375 6.91796875 C9.11804693 10.99633452 9.36832289 15.05771786 8.5 19.3125 C6.96875 21.609375 6.96875 21.609375 5.5 23.3125 C4.18 22.9825 2.86 22.6525 1.5 22.3125 C1.5 21.6525 1.5 20.9925 1.5 20.3125 C0.901875 20.828125 0.30375 21.34375 -0.3125 21.875 C-1.034375 22.349375 -1.75625 22.82375 -2.5 23.3125 C-3.49 22.9825 -4.48 22.6525 -5.5 22.3125 C-5.04625 21.755625 -4.5925 21.19875 -4.125 20.625 C-2.38240685 18.36913428 -2.38240685 18.36913428 -1.5625 15.625 C-0.5 13.3125 -0.5 13.3125 1.625 12.5 C2.24375 12.438125 2.8625 12.37625 3.5 12.3125 C3.5 11.6525 3.5 10.9925 3.5 10.3125 C1.85 10.9725 0.2 11.6325 -1.5 12.3125 C-1.83 11.3225 -2.16 10.3325 -2.5 9.3125 C-2.4071875 10.8903125 -2.4071875 10.8903125 -2.3125 12.5 C-2.5077786 16.47066493 -3.20325068 18.15446969 -5.5 21.3125 C-6.91661483 18.47927033 -6.93608825 15.68870416 -7.2265625 12.55859375 C-7.44378236 10.19441061 -7.44378236 10.19441061 -8.375 7.5625 C-8.5 5.3125 -8.5 5.3125 -6.5 2.4375 C-3.5 0.3125 -3.5 0.3125 0 0 Z " fill="#16B893" transform="translate(72.5,141.6875)"/>
<path d="M0 0 C0.66 0 1.32 0 2 0 C2 0.99 2 1.98 2 3 C5.63 3 9.26 3 13 3 C13 2.01 13 1.02 13 0 C13.66 0 14.32 0 15 0 C15 0.99 15 1.98 15 3 C16.32 3.33 17.64 3.66 19 4 C18.67 5.32 18.34 6.64 18 8 C16.35 8 14.7 8 13 8 C12.67 8.66 12.34 9.32 12 10 C9.3828125 10.44921875 9.3828125 10.44921875 6.125 10.6875 C4.52011719 10.81705078 4.52011719 10.81705078 2.8828125 10.94921875 C0 11 0 11 -3 10 C-3 14.95 -3 19.9 -3 25 C3.6 25 10.2 25 17 25 C17 25.33 17 25.66 17 26 C6.605 26.495 6.605 26.495 -4 27 C-4.33 24.36 -4.66 21.72 -5 19 C-11.50638284 11.3737822 -25.28320681 6.2661276 -35 5 C-33.5 3.875 -33.5 3.875 -31 3 C-21.55833062 4.34880991 -12.65903123 9.46847745 -5 15 C-5.02320313 14.30132812 -5.04640625 13.60265625 -5.0703125 12.8828125 C-5.08835938 11.97273438 -5.10640625 11.06265625 -5.125 10.125 C-5.14820313 9.22007813 -5.17140625 8.31515625 -5.1953125 7.3828125 C-5 5 -5 5 -3 3 C-2.01 3 -1.02 3 0 3 C0 2.01 0 1.02 0 0 Z " fill="#202B27" transform="translate(143,33)"/>
<path d="M0 0 C0.66 0 1.32 0 2 0 C2 0.99 2 1.98 2 3 C5.63 3 9.26 3 13 3 C13 2.01 13 1.02 13 0 C13.66 0 14.32 0 15 0 C15 0.99 15 1.98 15 3 C15.99 3.33 16.98 3.66 18 4 C18.02887814 7.47914941 18.04675687 10.95826831 18.0625 14.4375 C18.07087891 15.43072266 18.07925781 16.42394531 18.08789062 17.44726562 C18.09272461 18.86362305 18.09272461 18.86362305 18.09765625 20.30859375 C18.10551147 21.62041626 18.10551147 21.62041626 18.11352539 22.95874023 C18 25 18 25 17 26 C15.44051458 26.15686249 13.87457332 26.25076639 12.30859375 26.31640625 C11.03326782 26.37356812 11.03326782 26.37356812 9.73217773 26.43188477 C8.64493408 26.47498779 7.55769043 26.51809082 6.4375 26.5625 C2.993125 26.706875 -0.45125 26.85125 -4 27 C-4 19.41 -4 11.82 -4 4 C-2.68 3.67 -1.36 3.34 0 3 C0 2.01 0 1.02 0 0 Z M-2 10 C-2 14.95 -2 19.9 -2 25 C4.27 25 10.54 25 17 25 C17 20.05 17 15.1 17 10 C10.73 10 4.46 10 -2 10 Z " fill="#284C43" transform="translate(35,33)"/>
<path d="M0 0 C3.04421489 0.81179064 5.43560806 1.52967338 7.875 3.5625 C9.66772063 7.44672803 9.69679482 10.80056692 9 15 C7.8448836 18.12442943 6.53972827 21.10506384 5.09375 24.10546875 C3.86629608 27.35383786 3.60118815 29.55614237 4 33 C5.13553439 35.0610424 5.13553439 35.0610424 6.8125 36.6875 C7.33457031 37.24824219 7.85664063 37.80898437 8.39453125 38.38671875 C10.69308717 40.69753823 10.69308717 40.69753823 13 43 C9.52672091 43.40862107 8.00537213 43.00290095 4.875 41.3125 C1.25519174 38.40091509 -0.65868646 36.43975975 -1.31640625 31.73828125 C-1.57774679 26.23326924 -0.64835642 22.69873715 2.0234375 17.94140625 C3.76479888 14.47957982 4.06388167 11.89678183 4 8 C1.72872666 4.97590636 1.72872666 4.97590636 -1 3 C-0.67 2.01 -0.34 1.02 0 0 Z " fill="#056651" transform="translate(22,122)"/>
<path d="M0 0 C1.32 0.33 2.64 0.66 4 1 C5.73285648 1.07952806 7.46847386 1.10774143 9.203125 1.09765625 C10.1828125 1.09443359 11.1625 1.09121094 12.171875 1.08789062 C13.18765625 1.07951172 14.2034375 1.07113281 15.25 1.0625 C16.28125 1.05798828 17.3125 1.05347656 18.375 1.04882812 C20.91672573 1.03706088 23.45833319 1.02062011 26 1 C26.99 3.64 27.98 6.28 29 9 C18.77 9 8.54 9 -2 9 C-1.34 6.03 -0.68 3.06 0 0 Z " fill="#0BBF95" transform="translate(83,156)"/>
<path d="M0 0 C3.44761054 0.84431279 3.94586346 1.33783725 5.9375 4.125 C8.55059192 8.83864813 8.95428313 13.46501158 8.0625 18.75 C7.4025 19.74 6.7425 20.73 6.0625 21.75 C2.72096174 20.63615391 2.535764 20.27117707 0.8125 17.4375 C-1.8609915 13.46405392 -4.67207369 11.84089525 -8.9375 9.75 C-7.24164373 4.6624312 -5.39885871 1.37843201 0 0 Z " fill="#089070" transform="translate(130.9375,141.25)"/>
<path d="M0 0 C5.56430014 2.67086407 8.59829578 7.03013426 12 12 C10.16015625 12.62109375 10.16015625 12.62109375 8 13 C6.29749607 11.71274093 4.62935241 10.37868281 3 9 C2.01 9 1.02 9 0 9 C0 7.02 0 5.04 0 3 C-0.66 3 -1.32 3 -2 3 C-2 4.98 -2 6.96 -2 9 C-3.65 9 -5.3 9 -7 9 C-7 9.66 -7 10.32 -7 11 C-5.7625 10.773125 -4.525 10.54625 -3.25 10.3125 C-0.2357185 9.75988173 0.64011283 9.76483235 3.265625 11.48046875 C3.83796875 11.98191406 4.4103125 12.48335937 5 13 C2.87561661 13.08078641 0.7503677 13.13909141 -1.375 13.1875 C-3.15003906 13.23970703 -3.15003906 13.23970703 -4.9609375 13.29296875 C-6.46527344 13.14794922 -6.46527344 13.14794922 -8 13 C-10.13586678 9.79619983 -10.23132175 8.98060033 -10.125 5.3125 C-10.10695313 4.50425781 -10.08890625 3.69601563 -10.0703125 2.86328125 C-10.04710938 2.24839844 -10.02390625 1.63351563 -10 1 C-6.77739242 -0.61130379 -3.49455239 -0.45154329 0 0 Z " fill="#0DB18B" transform="translate(122,152)"/>
<path d="M0 0 C0.33 0 0.66 0 1 0 C1.33 15.84 1.66 31.68 2 48 C2.66 48.33 3.32 48.66 4 49 C4 49.66 4 50.32 4 51 C3.01 51.495 3.01 51.495 2 52 C3.485 52.495 3.485 52.495 5 53 C5.34566587 55.90359334 5.55104134 58.12081044 3.95703125 60.6640625 C2.08659008 62.89103938 0.05538964 64.94461036 -2 67 C-4.06298828 67.13525391 -4.06298828 67.13525391 -6.5703125 66.9765625 C-7.91416016 66.89921875 -7.91416016 66.89921875 -9.28515625 66.8203125 C-10.22230469 66.75585938 -11.15945312 66.69140625 -12.125 66.625 C-13.54232422 66.53992188 -13.54232422 66.53992188 -14.98828125 66.453125 C-17.32626481 66.31142903 -19.66320944 66.16000217 -22 66 C-22 65.34 -22 64.68 -22 64 C-20.89140625 63.93941406 -19.7828125 63.87882812 -18.640625 63.81640625 C-17.1770718 63.73197049 -15.71353075 63.64732401 -14.25 63.5625 C-13.52039063 63.52318359 -12.79078125 63.48386719 -12.0390625 63.44335938 C-6.92548706 63.21542387 -6.92548706 63.21542387 -2 62 C-0.95012521 58.85037564 -0.84406158 56.55212584 -0.79467773 53.2434082 C-0.77473251 52.06241043 -0.75478729 50.88141266 -0.73423767 49.66462708 C-0.71752518 48.38955795 -0.70081268 47.11448883 -0.68359375 45.80078125 C-0.66281265 44.49545944 -0.64203156 43.19013763 -0.62062073 41.84526062 C-0.56547727 38.37817647 -0.51603405 34.91103354 -0.46777344 31.44384766 C-0.4175019 27.90456931 -0.36184537 24.36537611 -0.30664062 20.82617188 C-0.19915362 13.88418844 -0.09768773 6.94212806 0 0 Z " fill="#B4EED1" transform="translate(136,72)"/>
<path d="M0 0 C0.33 0 0.66 0 1 0 C1.03758423 0.83978394 1.03758423 0.83978394 1.07592773 1.6965332 C1.19203745 4.23541305 1.3146958 6.77393553 1.4375 9.3125 C1.47681641 10.19357422 1.51613281 11.07464844 1.55664062 11.98242188 C1.59853516 12.82998047 1.64042969 13.67753906 1.68359375 14.55078125 C1.73858032 15.72120972 1.73858032 15.72120972 1.79467773 16.9152832 C1.94125263 19.19329101 1.94125263 19.19329101 3 22 C6.42966378 23.71483189 10.24152063 23.40269422 14 23 C16.34261608 21.62073227 16.34261608 21.62073227 18 20 C18.99 20 19.98 20 21 20 C21 26.27 21 32.54 21 39 C20.67 39 20.34 39 20 39 C19.67 35.37 19.34 31.74 19 28 C15.01957092 27.00489273 11.8346834 26.89967886 7.75 26.9375 C5.85507812 26.95103516 5.85507812 26.95103516 3.921875 26.96484375 C2.95765625 26.97644531 1.9934375 26.98804687 1 27 C1.33 26.01 1.66 25.02 2 24 C1.34 23.67 0.68 23.34 0 23 C0.0407666 23.58491211 0.0815332 24.16982422 0.12353516 24.77246094 C0.30228316 27.43100796 0.46380807 30.09033321 0.625 32.75 C0.68945312 33.67039063 0.75390625 34.59078125 0.8203125 35.5390625 C0.871875 36.42851563 0.9234375 37.31796875 0.9765625 38.234375 C1.02893066 39.05131836 1.08129883 39.86826172 1.13525391 40.70996094 C0.98414765 43.26840268 0.28926961 44.80868168 -1 47 C-1.8099665 41.33023448 -2.15921633 35.84873102 -2.125 30.125 C-2.12234131 29.31361572 -2.11968262 28.50223145 -2.11694336 27.66625977 C-2.07182752 21.74923116 -1.87336346 15.84630624 -1.5625 9.9375 C-1.52334473 9.17002441 -1.48418945 8.40254883 -1.44384766 7.61181641 C-1.12565524 2.25131048 -1.12565524 2.25131048 0 0 Z " fill="#072922" transform="translate(32,88)"/>
<path d="M0 0 C4.55555556 0.55555556 4.55555556 0.55555556 6 2 C6.09986975 4.84335048 6.13877881 7.65697163 6.125 10.5 C6.12886719 11.29792969 6.13273437 12.09585938 6.13671875 12.91796875 C6.12660767 18.87339233 6.12660767 18.87339233 5 20 C2.5625 20.1875 2.5625 20.1875 0 20 C-2.55948999 17.44051001 -2.26068731 15.72792805 -2.2734375 12.234375 C-2.26570313 11.49703125 -2.25796875 10.7596875 -2.25 10 C-2.25773437 9.26265625 -2.26546875 8.5253125 -2.2734375 7.765625 C-2.2533196 2.2533196 -2.2533196 2.2533196 0 0 Z " fill="#F0F8E6" transform="translate(113,58)"/>
<path d="M0 0 C4.55555556 0.55555556 4.55555556 0.55555556 6 2 C6.07325168 4.86267567 6.09238205 7.700719 6.0625 10.5625 C6.05798828 11.36880859 6.05347656 12.17511719 6.04882812 13.00585938 C6.03700518 15.00393756 6.01906914 17.00197783 6 19 C3.125 19.625 3.125 19.625 0 20 C-2.55948999 17.44051001 -2.26068731 15.72792805 -2.2734375 12.234375 C-2.26570313 11.49703125 -2.25796875 10.7596875 -2.25 10 C-2.25773437 9.26265625 -2.26546875 8.5253125 -2.2734375 7.765625 C-2.2533196 2.2533196 -2.2533196 2.2533196 0 0 Z " fill="#EFF7E5" transform="translate(76,58)"/>
<path d="M0 0 C0.66 0 1.32 0 2 0 C2.33 0.66 2.66 1.32 3 2 C4.65 1.67 6.3 1.34 8 1 C8.625 3.375 8.625 3.375 9 6 C8.34 6.66 7.68 7.32 7 8 C6.75746187 10.21072977 6.75746187 10.21072977 6.875 12.625 C6.89304688 13.44226563 6.91109375 14.25953125 6.9296875 15.1015625 C6.95289063 15.72804687 6.97609375 16.35453125 7 17 C8.65 16.34 10.3 15.68 12 15 C12.33 10.05 12.66 5.1 13 0 C13.66 0 14.32 0 15 0 C15.0809313 2.60478883 15.14045434 5.20706653 15.1875 7.8125 C15.22520508 8.91948242 15.22520508 8.91948242 15.26367188 10.04882812 C15.33774501 15.50554909 15.33774501 15.50554909 13.64453125 17.984375 C11.24579822 19.46577782 9.75896397 19.48281869 7 19 C4.27556936 16.6513529 4.01653163 15.15153994 3.625 11.5625 C4.0150702 7.85683313 4.833226 5.97931425 7 3 C3.96278792 5.37282194 3.06691585 6.48379199 2.5625 10.375 C3.02436084 14.20184692 4.06467041 16.69381195 6 20 C5.01 20 4.02 20 3 20 C-0.33419111 15.99741627 -0.37352741 12.17208061 -0.1875 7.1875 C-0.16719727 6.14819336 -0.16719727 6.14819336 -0.14648438 5.08789062 C-0.11138845 3.39158735 -0.05758943 1.69568864 0 0 Z " fill="#1F2926" transform="translate(143,144)"/>
<path d="M0 0 C0.33 0 0.66 0 1 0 C1 5.94 1 11.88 1 18 C-2.465 16.02 -2.465 16.02 -6 14 C-6.66 14 -7.32 14 -8 14 C-7.00468637 16.22031501 -6.28006422 17.76808242 -4.38671875 19.3359375 C-3 21 -3 21 -3.0390625 23.26953125 C-3.93376503 27.15254023 -4.71476333 30.47340922 -6.625 34 C-8.6143796 38.34046458 -8.70163466 42.30209839 -8 47 C-6.00342873 50.85544798 -4.60292362 52.59805092 -1 55 C-2.485 55.495 -2.485 55.495 -4 56 C-11.30751174 48.69248826 -11.30751174 48.69248826 -11.375 42.875 C-11.31665367 37.58298797 -10.56049817 34.2153469 -7.90625 29.703125 C-6.46114006 26.98731494 -6.46891789 24.98733685 -7 22 C-7.680625 21.154375 -8.36125 20.30875 -9.0625 19.4375 C-11 17 -11 17 -10.75 14.1875 C-10.5025 13.465625 -10.255 12.74375 -10 12 C-6.625 11.875 -6.625 11.875 -3 12 C-2.34 12.66 -1.68 13.32 -1 14 C-0.67 9.38 -0.34 4.76 0 0 Z " fill="#07221C" transform="translate(30,109)"/>
<path d="M0 0 C1.60332791 -0.08121924 3.20784026 -0.13929134 4.8125 -0.1875 C6.15248047 -0.23970703 6.15248047 -0.23970703 7.51953125 -0.29296875 C10 0 10 0 11.8125 1.15625 C13.47611355 3.73922894 13.29488288 5.64498508 13.1875 8.6875 C13.16042969 9.68136719 13.13335937 10.67523438 13.10546875 11.69921875 C13.07066406 12.45847656 13.03585938 13.21773437 13 14 C11.35 14 9.7 14 8 14 C8 12.35 8 10.7 8 9 C5.36 9 2.72 9 0 9 C0 6.03 0 3.06 0 0 Z " fill="#13BD97" transform="translate(121,68)"/>
<path d="M0 0 C0.495 0.99 0.495 0.99 1 2 C0.38511719 2.15855469 -0.22976562 2.31710938 -0.86328125 2.48046875 C-6.13244444 3.93690111 -6.13244444 3.93690111 -10.0625 7.5625 C-11.11965969 9.87585307 -11.11965969 9.87585307 -11 12 C-9.948125 12.515625 -8.89625 13.03125 -7.8125 13.5625 C-3.57856093 15.94624212 -1.579131 18.93591479 1 23 C0.34 23.66 -0.32 24.32 -1 25 C-1.37511719 24.45730469 -1.75023437 23.91460937 -2.13671875 23.35546875 C-6.12702069 17.55267119 -6.12702069 17.55267119 -12 14 C-15.35011049 13.77803582 -18.64877885 13.82430491 -22 14 C-21.85831863 15.43791516 -21.71148957 16.8753237 -21.5625 18.3125 C-21.48128906 19.11300781 -21.40007812 19.91351563 -21.31640625 20.73828125 C-21.04734307 23.16087179 -21.04734307 23.16087179 -20 26 C-23 25 -23 25 -24.1875 23.125 C-25 21 -25 21 -25 18 C-27.31 17.67 -29.62 17.34 -32 17 C-32 16.67 -32 16.34 -32 16 C-30.39125 15.87625 -30.39125 15.87625 -28.75 15.75 C-24.97392088 15.37205615 -24.97392088 15.37205615 -23.0625 12.9375 C-20.63312557 10.65536038 -19.96487036 10.73310926 -16.75 10.75 C-15.5125 10.8325 -14.275 10.915 -13 11 C-12.95875 10.278125 -12.9175 9.55625 -12.875 8.8125 C-11.6827312 4.98020744 -9.36642154 2.98889732 -6 1 C-2.625 0.1875 -2.625 0.1875 0 0 Z " fill="#0F231E" transform="translate(134,139)"/>
<path d="M0 0 C0.33 0 0.66 0 1 0 C1 5.94 1 11.88 1 18 C2.65 18 4.3 18 6 18 C6.33 18.66 6.66 19.32 7 20 C0.375 20.25 0.375 20.25 -3 18 C-3.33 20.97 -3.66 23.94 -4 27 C-4.33 27 -4.66 27 -5 27 C-5 23.7 -5 20.4 -5 17 C-7.97 17 -10.94 17 -14 17 C-14.66 14.69 -15.32 12.38 -16 10 C-14.35 10 -12.7 10 -11 10 C-11 10.66 -11 11.32 -11 12 C-10.01 12 -9.02 12 -8 12 C-8 11.34 -8 10.68 -8 10 C-6.35 10 -4.7 10 -3 10 C-3.33 10.99 -3.66 11.98 -4 13 C-5.32 13 -6.64 13 -8 13 C-8 13.66 -8 14.32 -8 15 C-5.36 15.33 -2.72 15.66 0 16 C0 10.72 0 5.44 0 0 Z " fill="#131716" transform="translate(51,109)"/>
<path d="M0 0 C1.44826172 -0.02126953 1.44826172 -0.02126953 2.92578125 -0.04296875 C5.6875 0.1875 5.6875 0.1875 9.6875 2.1875 C9.6875 5.1575 9.6875 8.1275 9.6875 11.1875 C7.0475 10.8575 4.4075 10.5275 1.6875 10.1875 C1.6875 9.5275 1.6875 8.8675 1.6875 8.1875 C2.326875 8.06375 2.96625 7.94 3.625 7.8125 C4.305625 7.60625 4.98625 7.4 5.6875 7.1875 C6.0175 6.5275 6.3475 5.8675 6.6875 5.1875 C5.6975 5.5175 4.7075 5.8475 3.6875 6.1875 C3.0275 5.8575 2.3675 5.5275 1.6875 5.1875 C1.6875 5.8475 1.6875 6.5075 1.6875 7.1875 C0.6975 7.1875 -0.2925 7.1875 -1.3125 7.1875 C-1.3125 6.5275 -1.3125 5.8675 -1.3125 5.1875 C-2.6325 5.1875 -3.9525 5.1875 -5.3125 5.1875 C-5.875 3.25 -5.875 3.25 -6.3125 1.1875 C-4.59154777 -0.53345223 -2.34086086 0.01550239 0 0 Z " fill="#187D6B" transform="translate(41.3125,113.8125)"/>
<path d="M0 0 C0.66 0 1.32 0 2 0 C3.37038812 15.0110206 3.37038812 15.0110206 2 22 C1 23 1 23 -2.5625 23.0625 C-3.696875 23.041875 -4.83125 23.02125 -6 23 C-6.26941406 23.54269531 -6.53882813 24.08539063 -6.81640625 24.64453125 C-7.66616016 26.33562567 -8.52980625 28.01976635 -9.40234375 29.69921875 C-13.66462709 37.99602984 -17.00940143 45.68837343 -18 55 C-19.55988177 52.5684196 -20.03098426 51.3214617 -19.75 48.40625 C-17.34052637 39.0695397 -13.80556597 30.74075463 -8 23 C-11.96 23 -15.92 23 -20 23 C-20 22.67 -20 22.34 -20 22 C-10.1 21.505 -10.1 21.505 0 21 C0 14.07 0 7.14 0 0 Z " fill="#111C19" transform="translate(52,37)"/>
<path d="M0 0 C0.33 0.33 0.66 0.66 1 1 C0.75 4.4375 0.75 4.4375 0 8 C-0.99 8.66 -1.98 9.32 -3 10 C-3.99 9.01 -4.98 8.02 -6 7 C-5.34 8.98 -4.68 10.96 -4 13 C-6.64 11.68 -9.28 10.36 -12 9 C-9.8111881 2.4335643 -7.23228721 -0.80358747 0 0 Z " fill="#33AB90" transform="translate(134,142)"/>
<path d="M0 0 C3.63 0 7.26 0 11 0 C11 2.64 11 5.28 11 8 C6.71 8 2.42 8 -2 8 C-2 7.34 -2 6.68 -2 6 C-1.34 6 -0.68 6 0 6 C0 4.02 0 2.04 0 0 Z " fill="#1D322A" transform="translate(118,120)"/>
<path d="M0 0 C3.08100341 0.27571479 6.16171476 0.44663533 9.25 0.62109375 C12 1 12 1 14 3 C-7.78 3 -29.56 3 -52 3 C-52 2.67 -52 2.34 -52 2 C-50.10109009 1.970271 -50.10109009 1.970271 -48.16381836 1.93994141 C-43.44666362 1.86360828 -38.72980622 1.77493414 -34.01293945 1.68261719 C-31.97523895 1.64444164 -29.93747369 1.60956923 -27.8996582 1.578125 C-24.96281866 1.53222568 -22.02642059 1.47427284 -19.08984375 1.4140625 C-18.18540024 1.40251129 -17.28095673 1.39096008 -16.34910583 1.37905884 C-12.37662001 1.28731616 -8.80683623 1.08185672 -4.99438477 -0.08837891 C-2 -1 -2 -1 0 0 Z " fill="#E5F7E5" transform="translate(116,128)"/>
<path d="M0 0 C0.5259375 0.7734375 0.5259375 0.7734375 1.0625 1.5625 C3.08522165 3.38851048 3.08522165 3.38851048 6.625 2.75 C9.82263935 2.35631915 9.82263935 2.35631915 11 1 C14.45673849 1 17.00495929 1.19911357 19.76171875 3.41796875 C23.08416438 7.06220088 24.75289965 9.93444282 25 15 C24.67 14.01 24.34 13.02 24 12 C23.34 12 22.68 12 22 12 C21.484375 10.865625 20.96875 9.73125 20.4375 8.5625 C18.64480557 5.45854145 18.17341394 5.06743876 14.625 3.6875 C10.71270013 4.02476723 10.26552096 4.29014351 7.6875 6.9375 C7.21699219 7.50339844 6.74648437 8.06929687 6.26171875 8.65234375 C5.84535156 9.09707031 5.42898437 9.54179687 5 10 C4.34 10 3.68 10 3 10 C1.1402289 7.40759181 -0.57205423 4.85589153 -2 2 C-1.34 2 -0.68 2 0 2 C0 1.34 0 0.68 0 0 Z " fill="#313632" transform="translate(58,139)"/>
<path d="M0 0 C0.99 0.33 1.98 0.66 3 1 C7.654797 1.3053818 7.654797 1.3053818 12 0 C13.25 7.625 13.25 7.625 11 11 C10.01 10.67 9.02 10.34 8 10 C8.99 8.68 9.98 7.36 11 6 C10.01 6 9.02 6 8 6 C7.67 6.66 7.34 7.32 7 8 C4.525 7.01 4.525 7.01 2 6 C2 6.99 2 7.98 2 9 C2.66 9 3.32 9 4 9 C4 9.66 4 10.32 4 11 C2.68 10.34 1.36 9.68 0 9 C0 6.03 0 3.06 0 0 Z " fill="#EBEFE0" transform="translate(48,127)"/>
<path d="M0 0 C0.33 1.32 0.66 2.64 1 4 C2.32 4 3.64 4 5 4 C5.33 3.01 5.66 2.02 6 1 C6.02887814 4.47914941 6.04675687 7.95826831 6.0625 11.4375 C6.07087891 12.43072266 6.07925781 13.42394531 6.08789062 14.44726562 C6.09272461 15.86362305 6.09272461 15.86362305 6.09765625 17.30859375 C6.10551147 18.62041626 6.10551147 18.62041626 6.11352539 19.95874023 C6 22 6 22 5 23 C2.77685889 23.2650102 0.54541537 23.46167286 -1.6875 23.625 C-3.51861328 23.76808594 -3.51861328 23.76808594 -5.38671875 23.9140625 C-8.76412977 23.99439011 -11.70062345 23.67913434 -15 23 C-15 22.67 -15 22.34 -15 22 C-8.73 22 -2.46 22 4 22 C4 16.72 4 11.44 4 6 C2.68 6.33 1.36 6.66 0 7 C-0.33 6.67 -0.66 6.34 -1 6 C-2.68183948 5.76712992 -4.3712416 5.58735834 -6.0625 5.4375 C-6.98160156 5.35371094 -7.90070313 5.26992188 -8.84765625 5.18359375 C-9.91306641 5.09271484 -9.91306641 5.09271484 -11 5 C-11 4.67 -11 4.34 -11 4 C-7.37 4 -3.74 4 0 4 C0 2.68 0 1.36 0 0 Z " fill="#0E1613" transform="translate(156,37)"/>
<path d="M0 0 C3.36591866 1.44253657 5.51047079 3.33264727 8 6 C11.69418201 4.768606 13.35109746 2.79208646 16 0 C16.33 0.99 16.66 1.98 17 3 C16.34 3.66 15.68 4.32 15 5 C15 5.99 15 6.98 15 8 C14.67 8.66 14.34 9.32 14 10 C10.7 10 7.4 10 4 10 C3.34 8.35 2.68 6.7 2 5 C2.99 5.33 3.98 5.66 5 6 C3.68 5.01 2.36 4.02 1 3 C0.67 6.3 0.34 9.6 0 13 C-0.33 13 -0.66 13 -1 13 C-1.2236337 11.58566794 -1.42826476 10.16832382 -1.625 8.75 C-1.74101562 7.96109375 -1.85703125 7.1721875 -1.9765625 6.359375 C-2.00319395 3.67847541 -1.36592084 2.27305911 0 0 Z " fill="#1E2320" transform="translate(143,104)"/>
<path d="M0 0 C2.64 0 5.28 0 8 0 C8 3.3 8 6.6 8 10 C4.7 9.67 1.4 9.34 -2 9 C-2 7.02 -2 5.04 -2 3 C-1.34 3 -0.68 3 0 3 C0 2.01 0 1.02 0 0 Z " fill="#A5A89D" transform="translate(80,93)"/>
<path d="M0 0 C0.66 0 1.32 0 2 0 C2 0.99 2 1.98 2 3 C3.32 3.33 4.64 3.66 6 4 C5.67 5.32 5.34 6.64 5 8 C-0.28 8 -5.56 8 -11 8 C-11 6.35 -11 4.7 -11 3 C-7.37 3 -3.74 3 0 3 C0 2.01 0 1.02 0 0 Z " fill="#15322A" transform="translate(156,33)"/>
<path d="M0 0 C0.66 0 1.32 0 2 0 C3.125 6.75 3.125 6.75 2 9 C3.32 8.34 4.64 7.68 6 7 C5.25 11.75 5.25 11.75 3 14 C0.875 13.625 0.875 13.625 -1 13 C-1 12.34 -1 11.68 -1 11 C-1.598125 11.515625 -2.19625 12.03125 -2.8125 12.5625 C-3.534375 13.036875 -4.25625 13.51125 -5 14 C-5.99 13.67 -6.98 13.34 -8 13 C-7.319375 12.1646875 -7.319375 12.1646875 -6.625 11.3125 C-4.88240685 9.05663428 -4.88240685 9.05663428 -4.0625 6.3125 C-3 4 -3 4 -0.875 3.1875 C-0.25625 3.125625 0.3625 3.06375 1 3 C0.67 2.01 0.34 1.02 0 0 Z " fill="#0AA782" transform="translate(75,151)"/>
<path d="M0 0 C2.9375 -0.4375 2.9375 -0.4375 6 0 C7.98511388 1.77590984 8.88255656 3.22495411 9.28393555 5.8737793 C9.4042094 8.11128337 9.40903059 10.32215308 9.375 12.5625 C9.38660156 13.33013672 9.39820312 14.09777344 9.41015625 14.88867188 C9.38116685 20.43047877 9.38116685 20.43047877 7.6640625 22.99609375 C4.96211097 24.62614432 3.06577866 24.51096311 0 24 C-2.44862155 21.02467267 -2.99310302 19.32996591 -3.07421875 15.44921875 C-2.94660156 14.20785156 -2.81898437 12.96648437 -2.6875 11.6875 C-2.50767578 9.80611328 -2.50767578 9.80611328 -2.32421875 7.88671875 C-2.21722656 6.93410156 -2.11023438 5.98148438 -2 5 C-1.67 5 -1.34 5 -1 5 C-0.67 9.95 -0.34 14.9 0 20 C4.47702364 21.06537205 4.47702364 21.06537205 7 21 C6.67 15.39 6.34 9.78 6 4 C1.35954625 2.90194193 1.35954625 2.90194193 -2 3 C-1.34 2.01 -0.68 1.02 0 0 Z " fill="#2A3D36" transform="translate(75,56)"/>
<path d="M0 0 C0 0.99 0 1.98 0 3 C-0.66 2.34 -1.32 1.68 -2 1 C-5.43832126 0.54843434 -8.91042904 0.67595143 -12.375 0.6875 C-13.3340625 0.67138672 -14.293125 0.65527344 -15.28125 0.63867188 C-16.20679688 0.63802734 -17.13234375 0.63738281 -18.0859375 0.63671875 C-18.9320459 0.63373779 -19.7781543 0.63075684 -20.64990234 0.62768555 C-23.47528232 1.07529665 -24.86889612 2.1402784 -27 4 C-25.60440273 0.6273066 -24.1078412 -1.08045102 -21 -3 C-13.02339217 -5.40299483 -7.07921371 -4.11881525 0 0 Z " fill="#DAE3D6" transform="translate(165,134)"/>
<path d="M0 0 C6.08732676 -0.41981564 9.20826311 -0.16672773 14 4 C16.14225262 6.57463388 18.10867708 9.23679063 20 12 C18.16015625 12.62109375 18.16015625 12.62109375 16 13 C14.29749607 11.71274093 12.62935241 10.37868281 11 9 C10.01 9 9.02 9 8 9 C8 6.69 8 4.38 8 2 C5.36 1.67 2.72 1.34 0 1 C0 0.67 0 0.34 0 0 Z " fill="#3EBA9D" transform="translate(114,152)"/>
<path d="M0 0 C0.33 0 0.66 0 1 0 C1 4.62 1 9.24 1 14 C-6.21712538 14.48929664 -6.21712538 14.48929664 -10 12.125 C-12 10 -12 10 -12 8 C-9.03 8.495 -9.03 8.495 -6 9 C-4.10786631 6.61426621 -2.97608217 4.92824652 -2 2 C-1.34 2 -0.68 2 0 2 C0 1.34 0 0.68 0 0 Z " fill="#A6D3C4" transform="translate(158,43)"/>
<path d="M0 0 C5.25114461 2.56693669 10.28274173 5.24022667 15.0234375 8.6640625 C15.0234375 5.3640625 15.0234375 2.0640625 15.0234375 -1.3359375 C15.3534375 -1.3359375 15.6834375 -1.3359375 16.0234375 -1.3359375 C16.0234375 2.6240625 16.0234375 6.5840625 16.0234375 10.6640625 C12.05816543 10.6640625 9.62575005 8.84045893 6.3359375 6.8515625 C-0.57135963 2.7942346 -6.87987698 -0.32385181 -14.9765625 -1.3359375 C-10.14174243 -4.96205255 -4.90205714 -2.20013588 0 0 Z " fill="#35463E" transform="translate(122.9765625,39.3359375)"/>
<path d="M0 0 C-0.33 1.65 -0.66 3.3 -1 5 C-6.61 5 -12.22 5 -18 5 C-18 4.34 -18 3.68 -18 3 C-16.96875 2.71125 -15.9375 2.4225 -14.875 2.125 C-12.47182111 1.4515285 -10.21639587 0.70223043 -7.875 -0.1875 C-4.77220292 -1.06437744 -3.0576187 -0.89929962 0 0 Z " fill="#08B08B" transform="translate(130,77)"/>
<path d="M0 0 C2.97 0 5.94 0 9 0 C9.04241723 2.33294775 9.04092937 4.66702567 9 7 C8 8 8 8 6.15234375 8.09765625 C4.1015625 8.06510417 2.05078125 8.03255208 0 8 C0 5.36 0 2.72 0 0 Z " fill="#262E29" transform="translate(68,108)"/>
<path d="M0 0 C0.66 0.99 1.32 1.98 2 3 C6.54981205 4.45280805 11.56818136 4.33408371 16.3125 4.5625 C17.14845703 4.60568359 17.98441406 4.64886719 18.84570312 4.69335938 C20.89696935 4.79885307 22.9484648 4.89987315 25 5 C21.25380451 7.40826853 17.87270385 7.26721537 13.5 7.25 C12.1903125 7.25515625 10.880625 7.2603125 9.53125 7.265625 C6.34757928 7.02614534 4.63897471 6.69648375 2 5 C1.67 7.64 1.34 10.28 1 13 C-0.32 13.33 -1.64 13.66 -3 14 C-2.68289062 13.44828125 -2.36578125 12.8965625 -2.0390625 12.328125 C-0.87290025 9.71522011 -0.59954289 7.59420998 -0.375 4.75 C-0.30023438 3.85796875 -0.22546875 2.9659375 -0.1484375 2.046875 C-0.09945312 1.37140625 -0.05046875 0.6959375 0 0 Z " fill="#0A2B21" transform="translate(81,151)"/>
<path d="M0 0 C0.66 0 1.32 0 2 0 C2 0.99 2 1.98 2 3 C2.99 3.33 3.98 3.66 5 4 C5 10.93 5 17.86 5 25 C4.67 25 4.34 25 4 25 C4 20.05 4 15.1 4 10 C2.68 10.33 1.36 10.66 0 11 C0 10.34 0 9.68 0 9 C-3.3 9 -6.6 9 -10 9 C-10 8.67 -10 8.34 -10 8 C-6.7 8 -3.4 8 0 8 C0 5.36 0 2.72 0 0 Z " fill="#253531" transform="translate(48,33)"/>
<path d="M0 0 C0.33 0 0.66 0 1 0 C1 3.3 1 6.6 1 10 C3.9254644 10.2236068 3.9254644 10.2236068 6 9 C6 7.02 6 5.04 6 3 C6.99 3.33 7.98 3.66 9 4 C9.3125 6.8125 9.3125 6.8125 9 10 C6.9375 11.9375 6.9375 11.9375 4 13 C-2.42857143 12.57142857 -2.42857143 12.57142857 -4 11 C-4.04063832 9.33382885 -4.042721 7.66611905 -4 6 C-3.01 5.67 -2.02 5.34 -1 5 C-0.67 3.35 -0.34 1.7 0 0 Z " fill="#2D342F" transform="translate(51,151)"/>
<path d="M0 0 C0.33 0 0.66 0 1 0 C1.33 15.84 1.66 31.68 2 48 C2.66 48.33 3.32 48.66 4 49 C4 49.66 4 50.32 4 51 C3.01 51.495 3.01 51.495 2 52 C1.34444881 54.52733235 1.34444881 54.52733235 1 57 C0.67 57 0.34 57 0 57 C0 38.19 0 19.38 0 0 Z " fill="#B2B9AF" transform="translate(136,72)"/>
<path d="M0 0 C2.64 0 5.28 0 8 0 C8 2.64 8 5.28 8 8 C5.36 8 2.72 8 0 8 C0 5.36 0 2.72 0 0 Z " fill="#155244" transform="translate(106,120)"/>
<path d="M0 0 C2.64 0 5.28 0 8 0 C8 2.64 8 5.28 8 8 C5.36 8 2.72 8 0 8 C0 5.36 0 2.72 0 0 Z " fill="#233731" transform="translate(94,120)"/>
<path d="M0 0 C2.64 0 5.28 0 8 0 C8 2.64 8 5.28 8 8 C5.36 8 2.72 8 0 8 C0 5.36 0 2.72 0 0 Z " fill="#125545" transform="translate(81,120)"/>
<path d="M0 0 C2.64 0 5.28 0 8 0 C8 2.64 8 5.28 8 8 C5.36 8 2.72 8 0 8 C0 5.36 0 2.72 0 0 Z " fill="#16231E" transform="translate(68,120)"/>
<path d="M0 0 C2.64 0 5.28 0 8 0 C8 2.64 8 5.28 8 8 C5.36 8 2.72 8 0 8 C0 5.36 0 2.72 0 0 Z " fill="#1C5548" transform="translate(106,108)"/>
<path d="M0 0 C2.64 0 5.28 0 8 0 C8 2.64 8 5.28 8 8 C5.36 8 2.72 8 0 8 C0 5.36 0 2.72 0 0 Z " fill="#1A5648" transform="translate(81,108)"/>
<path d="M0 0 C2.64 0 5.28 0 8 0 C8 2.64 8 5.28 8 8 C5.66705225 8.04241723 3.33297433 8.04092937 1 8 C0 7 0 7 -0.0625 3.4375 C-0.041875 2.303125 -0.02125 1.16875 0 0 Z " fill="#1C5748" transform="translate(118,108)"/>
<path d="M0 0 C2.64 0 5.28 0 8 0 C8.04241723 2.33294775 8.04092937 4.66702567 8 7 C7 8 7 8 3.4375 8.0625 C2.303125 8.041875 1.16875 8.02125 0 8 C0 5.36 0 2.72 0 0 Z " fill="#1E2521" transform="translate(94,108)"/>
<path d="M0 0 C1.67542976 0.28604898 3.34385343 0.61781233 5 1 C5.55353075 12.70615034 5.55353075 12.70615034 2 17 C0.88524034 14.77048068 0.73272462 13.16019904 0.5 10.6875 C0.23785633 8.06183521 -0.08574841 5.58840765 -0.625 3 C-0.74875 2.34 -0.8725 1.68 -1 1 C-0.67 0.67 -0.34 0.34 0 0 Z " fill="#0B9271" transform="translate(65,146)"/>
<path d="M0 0 C0.33 0 0.66 0 1 0 C0.67 2.31 0.34 4.62 0 7 C14.85 7.495 14.85 7.495 30 8 C30 8.33 30 8.66 30 9 C16.14 9 2.28 9 -12 9 C-11.67 8.34 -11.34 7.68 -11 7 C-10.0925 7.061875 -9.185 7.12375 -8.25 7.1875 C-4.66229831 6.98051721 -3.4637149 6.5549636 -1 4 C-0.20376178 1.90584196 -0.20376178 1.90584196 0 0 Z " fill="#03150D" transform="translate(75,157)"/>
<path d="M0 0 C1.2375 0.0825 2.475 0.165 3.75 0.25 C3.42 0.91 3.09 1.57 2.75 2.25 C0.10139573 2.84355614 -2.54197322 2.99209269 -5.25 3.25 C-5.10831863 4.68791516 -4.96148957 6.1253237 -4.8125 7.5625 C-4.73128906 8.36300781 -4.65007812 9.16351563 -4.56640625 9.98828125 C-4.29734307 12.41087179 -4.29734307 12.41087179 -3.25 15.25 C-6.25 14.25 -6.25 14.25 -7.4375 12.375 C-8.25 10.25 -8.25 10.25 -8.25 7.25 C-10.56 6.92 -12.87 6.59 -15.25 6.25 C-15.25 5.92 -15.25 5.59 -15.25 5.25 C-13.64125 5.12625 -13.64125 5.12625 -12 5 C-8.22392088 4.62205615 -8.22392088 4.62205615 -6.3125 2.1875 C-3.88312557 -0.09463962 -3.21487036 -0.01689074 0 0 Z " fill="#16342B" transform="translate(117.25,149.75)"/>
<path d="M0 0 C1.70703125 1.01171875 1.70703125 1.01171875 3 3 C3.05538697 5.83056579 2.9635167 8.39069365 2.6875 11.1875 C2.62626953 11.93708984 2.56503906 12.68667969 2.50195312 13.45898438 C2.34891389 15.30722745 2.17633121 17.1538335 2 19 C1.67 19 1.34 19 1 19 C0.67 14.05 0.34 9.1 0 4 C-1.65 3.67 -3.3 3.34 -5 3 C-6.99616554 4.99616554 -6.40983427 8.81701963 -6.5625 11.5625 C-6.60568359 12.27341797 -6.64886719 12.98433594 -6.69335938 13.71679688 C-6.79971777 15.47761912 -6.90038846 17.2387832 -7 19 C-7.33 19 -7.66 19 -8 19 C-8.24867947 16.39635591 -8.47457902 13.79410106 -8.6875 11.1875 C-8.79674805 10.08051758 -8.79674805 10.08051758 -8.90820312 8.95117188 C-9.32727264 3.5032682 -9.32727264 3.5032682 -7.70703125 1.01171875 C-5.04662029 -0.56504656 -3.01807096 -0.37725887 0 0 Z " fill="#393D38" transform="translate(118,56)"/>
<path d="M0 0 C0 6.27 0 12.54 0 19 C-0.33 19 -0.66 19 -1 19 C-1.33 15.37 -1.66 11.74 -2 8 C-7.94 7.01 -7.94 7.01 -14 6 C-14 5.67 -14 5.34 -14 5 C-12.9275 4.731875 -11.855 4.46375 -10.75 4.1875 C-6.65297539 2.89010887 -4.20581015 0 0 0 Z " fill="#323833" transform="translate(53,108)"/>
<path d="M0 0 C1.34191406 -0.01836914 1.34191406 -0.01836914 2.7109375 -0.03710938 C7.63283229 -0.04799852 11.63354285 0.25378533 16.25 2.1875 C16.25 2.5175 16.25 2.8475 16.25 3.1875 C6.02 3.1875 -4.21 3.1875 -14.75 3.1875 C-9.60865947 -0.24006035 -6.05698351 0.00428965 0 0 Z " fill="#0A2D23" transform="translate(95.75,33.8125)"/>
<path d="M0 0 C2.64 0 5.28 0 8 0 C8 2.31 8 4.62 8 7 C5.36 7 2.72 7 0 7 C0 4.69 0 2.38 0 0 Z " fill="#155041" transform="translate(118,96)"/>
<path d="M0 0 C2.64 0 5.28 0 8 0 C8 2.31 8 4.62 8 7 C5.36 7 2.72 7 0 7 C0 4.69 0 2.38 0 0 Z " fill="#134B3F" transform="translate(106,96)"/>
<path d="M0 0 C2.64 0 5.28 0 8 0 C8 2.31 8 4.62 8 7 C5.36 7 2.72 7 0 7 C0 4.69 0 2.38 0 0 Z " fill="#1F2D29" transform="translate(94,96)"/>
<path d="M0 0 C0.33 0 0.66 0 1 0 C1.12375 0.7425 1.2475 1.485 1.375 2.25 C2.13285828 5.88850245 2.13285828 5.88850245 4 9 C8.78267713 10.26334868 11.57063015 10.03511588 16 8 C17.32 8 18.64 8 20 8 C19 11 19 11 17 12 C14.69078797 12.14879681 12.3763236 12.22134584 10.0625 12.25 C8.19271484 12.28867188 8.19271484 12.28867188 6.28515625 12.328125 C3 12 3 12 1.0703125 10.77734375 C-0.31409302 8.47842218 -0.30338828 6.97793047 -0.1875 4.3125 C-0.16042969 3.50425781 -0.13335937 2.69601563 -0.10546875 1.86328125 C-0.07066406 1.24839844 -0.03585938 0.63351563 0 0 Z " fill="#B9E4CC" transform="translate(44,153)"/>
<path d="M0 0 C0.66 0 1.32 0 2 0 C2 0.66 2 1.32 2 2 C2.66 2 3.32 2 4 2 C4 2.66 4 3.32 4 4 C3.34 4 2.68 4 2 4 C1.67 5.32 1.34 6.64 1 8 C-1.31 8 -3.62 8 -6 8 C-5.67 6.35 -5.34 4.7 -5 3 C-3.35 2.67 -1.7 2.34 0 2 C0 1.34 0 0.68 0 0 Z " fill="#088568" transform="translate(65,74)"/>
<path d="M0 0 C0.66 0 1.32 0 2 0 C3.75954753 4.50884055 4.51828487 8.16267452 4 13 C1.93638856 16.90612165 0.23910579 19.48603365 -4 21 C-4.33 20.34 -4.66 19.68 -5 19 C-4.195625 18.38125 -3.39125 17.7625 -2.5625 17.125 C0.03874519 15.25835959 0.03874519 15.25835959 1 13 C1.30442659 8.53507661 0.5883272 5.1693589 -1 1 C-0.67 0.67 -0.34 0.34 0 0 Z " fill="#18201D" transform="translate(163,144)"/>
<path d="M0 0 C2.97 0.33 5.94 0.66 9 1 C9 2.65 9 4.3 9 6 C6.03 6 3.06 6 0 6 C0 4.02 0 2.04 0 0 Z " fill="#148D70" transform="translate(118,120)"/>
<path d="M0 0 C1.485 0.99 1.485 0.99 3 2 C3.22137393 4.62697064 3.28162025 7.00893964 3.1875 9.625 C3.16719727 10.68460938 3.16719727 10.68460938 3.14648438 11.765625 C3.1111104 13.51074128 3.05730221 15.25546608 3 17 C2.01 17 1.02 17 0 17 C0 11.39 0 5.78 0 0 Z " fill="#E1F4DD" transform="translate(53,109)"/>
<path d="M0 0 C1.32 0 2.64 0 4 0 C4.34566587 2.90359334 4.55104134 5.12081044 2.95703125 7.6640625 C1.08659008 9.89103938 -0.94461036 11.94461036 -3 14 C-3 10.7997785 -2.36757608 8.38516529 -1.5 5.3125 C-1.2215625 4.31863281 -0.943125 3.32476562 -0.65625 2.30078125 C-0.33140625 1.16189453 -0.33140625 1.16189453 0 0 Z " fill="#CFE9D1" transform="translate(137,125)"/>
<path d="M0 0 C0.33 0 0.66 0 1 0 C1 5.94 1 11.88 1 18 C-2.465 16.02 -2.465 16.02 -6 14 C-6.66 14 -7.32 14 -8 14 C-8.33 14.99 -8.66 15.98 -9 17 C-9.66 17 -10.32 17 -11 17 C-10.67 15.35 -10.34 13.7 -10 12 C-6.625 11.875 -6.625 11.875 -3 12 C-2.34 12.66 -1.68 13.32 -1 14 C-0.67 9.38 -0.34 4.76 0 0 Z " fill="#051913" transform="translate(30,109)"/>
<path d="M0 0 C0.556875 0.7115625 0.556875 0.7115625 1.125 1.4375 C3.62646962 3.52205802 5.81593418 3.64621491 9 4 C7.95125002 6.62187494 7.35068687 7.79371361 4.875 9.25 C4.25625 9.4975 3.6375 9.745 3 10 C-0.875 4.25 -0.875 4.25 -2 2 C-1.34 2 -0.68 2 0 2 C0 1.34 0 0.68 0 0 Z " fill="#18362A" transform="translate(58,139)"/>
<path d="M0 0 C0.66 0 1.32 0 2 0 C2 1.32 2 2.64 2 4 C2.99 4 3.98 4 5 4 C5 4.99 5 5.98 5 7 C4.01 7 3.02 7 2 7 C2 8.65 2 10.3 2 12 C1.01 11.67 0.02 11.34 -1 11 C-1.02688151 9.35425434 -1.04634123 7.70838587 -1.0625 6.0625 C-1.07410156 5.14597656 -1.08570313 4.22945313 -1.09765625 3.28515625 C-1 1 -1 1 0 0 Z " fill="#7F827A" transform="translate(43,87)"/>
<path d="M0 0 C-0.33 1.65 -0.66 3.3 -1 5 C-3.60582371 5.93065133 -4.64198224 6.14917407 -7.25 5.0625 C-7.8275 4.711875 -8.405 4.36125 -9 4 C-6.73455663 -1.01633889 -5.27613404 -1.24961069 0 0 Z " fill="#141614" transform="translate(154,47)"/>
<path d="M0 0 C-0.33 0.680625 -0.66 1.36125 -1 2.0625 C-2.1933772 5.56804552 -2.27277977 8.3174731 -2 12 C0.21934164 15.32901247 1.34683329 15.75023244 5 17 C3.3125 17.75 3.3125 17.75 1 18 C-2.2769294 15.86618551 -3.75006004 14.74981988 -5 11 C-5.45095168 4.79941435 -5.45095168 4.79941435 -3.625 1.5625 C-2 0 -2 0 0 0 Z " fill="#7BAA9C" transform="translate(150,147)"/>
<path d="M0 0 C0.33 0 0.66 0 1 0 C1.08131463 1.43655854 1.13933559 2.8744483 1.1875 4.3125 C1.22230469 5.11300781 1.25710937 5.91351563 1.29296875 6.73828125 C1 9 1 9 -0.3125 10.78125 C-2.81995612 12.59219053 -4.99920026 12.20005332 -8 12 C-8.28875 12.639375 -8.5775 13.27875 -8.875 13.9375 C-10 16 -10 16 -12 17 C-10.87548273 14.0280615 -9.77706209 11.66559313 -8 9 C-4.375 8.3125 -4.375 8.3125 -1 8 C-0.67 5.36 -0.34 2.72 0 0 Z " fill="#ADD2BF" transform="translate(54,51)"/>
<path d="M0 0 C0.33 0 0.66 0 1 0 C1.268125 0.86625 1.53625 1.7325 1.8125 2.625 C2.88136574 5.99435942 2.88136574 5.99435942 4.625 8.8125 C6.42251646 12.97946998 6.26814661 16.53088987 6 21 C5.34 20.67 4.68 20.34 4 20 C3.47265625 17.890625 3.47265625 17.890625 3.0625 15.25 C2.13304719 10.12703178 0.72018414 6.72018414 -3 3 C-2.01 3 -1.02 3 0 3 C0 2.01 0 1.02 0 0 Z " fill="#11201C" transform="translate(135,138)"/>
<path d="M0 0 C2.31 0 4.62 0 7 0 C6.6875 2.875 6.6875 2.875 6 6 C5.01 6.66 4.02 7.32 3 8 C2.71125 7.195625 2.4225 6.39125 2.125 5.5625 C1.26737432 2.8673532 1.26737432 2.8673532 -1 2 C-0.67 1.34 -0.34 0.68 0 0 Z " fill="#04BB93" transform="translate(128,144)"/>
<path d="M0 0 C0.33 0 0.66 0 1 0 C1.28875 1.2375 1.5775 2.475 1.875 3.75 C2.61334794 6.72448742 3.44474933 9.333856 5 12 C-0.75 12.125 -0.75 12.125 -3 11 C-2.32829194 7.1936543 -1.27253436 3.64793184 0 0 Z " fill="#519D86" transform="translate(142,153)"/>
<path d="M0 0 C0.66 0 1.32 0 2 0 C2.36116046 1.4774746 2.71375048 2.95704675 3.0625 4.4375 C3.25972656 5.26121094 3.45695312 6.08492188 3.66015625 6.93359375 C3.77230469 7.61550781 3.88445312 8.29742187 4 9 C3 10 3 10 0.4375 10.0625 C-0.366875 10.041875 -1.17125 10.02125 -2 10 C-1.85950482 8.52031676 -1.71245174 7.04125484 -1.5625 5.5625 C-1.48128906 4.73878906 -1.40007812 3.91507812 -1.31640625 3.06640625 C-1 1 -1 1 0 0 Z " fill="#4B4D49" transform="translate(72,92)"/>
<path d="M0 0 C1.65 0.33 3.3 0.66 5 1 C5 4 5 4 4 6 C3.01 6 2.02 6 1 6 C1 6.99 1 7.98 1 9 C0.01 8.67 -0.98 8.34 -2 8 C-1.34 5.36 -0.68 2.72 0 0 Z " fill="#96C4B4" transform="translate(150,113)"/>
<path d="M0 0 C2.9375 -0.4375 2.9375 -0.4375 6 0 C7.7109375 1.54296875 7.7109375 1.54296875 9 4 C9.0545392 6.69825523 8.971403 9.09186397 8.6875 11.75 C8.62626953 12.44738281 8.56503906 13.14476563 8.50195312 13.86328125 C8.34937092 15.57689681 8.17666411 17.2886995 8 19 C7.67 19 7.34 19 7 19 C6.67 14.05 6.34 9.1 6 4 C1.35954625 2.90194193 1.35954625 2.90194193 -2 3 C-1.34 2.01 -0.68 1.02 0 0 Z " fill="#444844" transform="translate(75,56)"/>
<path d="M0 0 C0.66 0 1.32 0 2 0 C2 1.98 2 3.96 2 6 C3.32 5.67 4.64 5.34 6 5 C6.99 6.32 7.98 7.64 9 9 C8.01 9.495 8.01 9.495 7 10 C6.46375 9.690625 5.9275 9.38125 5.375 9.0625 C1.86448461 7.49200627 -1.17292161 7.87243072 -5 8 C-5 7.34 -5 6.68 -5 6 C-3.35 6 -1.7 6 0 6 C0 4.02 0 2.04 0 0 Z " fill="#09372A" transform="translate(120,155)"/>
<path d="M0 0 C0.99 0 1.98 0 3 0 C2.96519531 0.58007812 2.93039063 1.16015625 2.89453125 1.7578125 C2.71255476 7.009134 3.16622289 10.39511219 6 15 C5.01 15 4.02 15 3 15 C-0.96990069 10.58899923 -0.29186374 5.56703067 0 0 Z " fill="#151F1C" transform="translate(143,149)"/>
<path d="M0 0 C0.7425 0.185625 1.485 0.37125 2.25 0.5625 C4.94990963 0.99203108 6.44631077 0.85122974 9 0 C8.34 1.98 7.68 3.96 7 6 C5.02 6 3.04 6 1 6 C1.33 5.01 1.66 4.02 2 3 C1.34 3 0.68 3 0 3 C0 2.01 0 1.02 0 0 Z " fill="#777A75" transform="translate(50,133)"/>
<path d="M0 0 C1.65 0 3.3 0 5 0 C5 0.66 5 1.32 5 2 C5.99 2 6.98 2 8 2 C8 1.34 8 0.68 8 0 C9.65 0 11.3 0 13 0 C12.67 0.99 12.34 1.98 12 3 C9.69 3 7.38 3 5 3 C5 3.66 5 4.32 5 5 C4.01 5 3.02 5 2 5 C1.34 3.35 0.68 1.7 0 0 Z " fill="#083D33" transform="translate(35,119)"/>
<path d="M0 0 C0.66 0 1.32 0 2 0 C1.67 1.65 1.34 3.3 1 5 C2.32 4.34 3.64 3.68 5 3 C4.25 7.75 4.25 7.75 2 10 C0.68 9.67 -0.64 9.34 -2 9 C-1.34 6.03 -0.68 3.06 0 0 Z " fill="#0A8F6F" transform="translate(76,155)"/>
<path d="M0 0 C0.66 0 1.32 0 2 0 C2 0.99 2 1.98 2 3 C2.66 3 3.32 3 4 3 C4 3.99 4 4.98 4 6 C0.7 5.67 -2.6 5.34 -6 5 C-5.67 4.01 -5.34 3.02 -5 2 C-3.35 2 -1.7 2 0 2 C0 1.34 0 0.68 0 0 Z " fill="#9EA098" transform="translate(84,97)"/>
<path d="M0 0 C3.63 0 7.26 0 11 0 C11 0.99 11 1.98 11 3 C7.37 3 3.74 3 0 3 C0 2.01 0 1.02 0 0 Z " fill="#3A9580" transform="translate(145,38)"/>
<path d="M0 0 C1.65 0.33 3.3 0.66 5 1 C4.67 2.65 4.34 4.3 4 6 C2.35 5.67 0.7 5.34 -1 5 C-0.67 3.35 -0.34 1.7 0 0 Z " fill="#BAEAD3" transform="translate(20,101)"/>
<path d="M0 0 C-0.33 0.66 -0.66 1.32 -1 2 C-3.50390625 2.4140625 -3.50390625 2.4140625 -6.5625 2.625 C-7.57441406 2.69976563 -8.58632812 2.77453125 -9.62890625 2.8515625 C-10.41136719 2.90054687 -11.19382812 2.94953125 -12 3 C-12 3.66 -12 4.32 -12 5 C-13.32 5 -14.64 5 -16 5 C-16 4.01 -16 3.02 -16 2 C-10.54538831 0.61470179 -5.63281599 -0.2396943 0 0 Z " fill="#52D2B1" transform="translate(90,25)"/>
<path d="M0 0 C0.33 0.66 0.66 1.32 1 2 C0.38511719 2.15855469 -0.22976562 2.31710938 -0.86328125 2.48046875 C-6.16765421 3.90294275 -6.16765421 3.90294275 -9.9375 7.6875 C-10.288125 8.450625 -10.63875 9.21375 -11 10 C-11.66 10 -12.32 10 -13 10 C-11.64845995 5.57677803 -9.90273896 3.48356116 -6 1 C-2.6875 0.25 -2.6875 0.25 0 0 Z " fill="#2D332E" transform="translate(134,139)"/>
<path d="M0 0 C0.99 0 1.98 0 3 0 C3 0.99 3 1.98 3 3 C6.96 3.33 10.92 3.66 15 4 C15 4.33 15 4.66 15 5 C13.06325815 5.19517554 11.12555991 5.38087873 9.1875 5.5625 C8.10855469 5.66691406 7.02960938 5.77132812 5.91796875 5.87890625 C3 6 3 6 0 5 C0 3.35 0 1.7 0 0 Z " fill="#305048" transform="translate(140,38)"/>
<path d="M0 0 C1.65 0 3.3 0 5 0 C5.625 1.875 5.625 1.875 6 4 C5.34 4.66 4.68 5.32 4 6 C1.875 5.625 1.875 5.625 0 5 C0 3.35 0 1.7 0 0 Z " fill="#B9E9D3" transform="translate(66,29)"/>
<path d="M0 0 C2.09350689 3.4019487 2.17942163 6.05272412 2 10 C0.68 10.33 -0.64 10.66 -2 11 C-3.39935013 8.20129973 -3.25265405 6.09501208 -3 3 C-1.5 1.125 -1.5 1.125 0 0 Z " fill="#0B2721" transform="translate(28,146)"/>
<path d="M0 0 C4.00358194 1.28686562 5.30656009 3.72021483 7.18359375 7.24609375 C8.0635411 9.13650696 8.67006661 10.93791632 9 13 C8.01 13.495 8.01 13.495 7 14 C6.67386719 13.31292969 6.34773437 12.62585938 6.01171875 11.91796875 C5.57472656 11.01691406 5.13773438 10.11585938 4.6875 9.1875 C4.25824219 8.29417969 3.82898438 7.40085938 3.38671875 6.48046875 C2.11778211 4.21068067 0.93443102 2.70751829 -1 1 C-0.67 0.67 -0.34 0.34 0 0 Z " fill="#192B26" transform="translate(163,131)"/>
<path d="M0 0 C2.0625 0.4375 2.0625 0.4375 4 1 C3.67 2.65 3.34 4.3 3 6 C1.35 5.67 -0.3 5.34 -2 5 C-1.125 1.125 -1.125 1.125 0 0 Z " fill="#BEEBD5" transform="translate(28,62)"/>
<path d="M0 0 C2.64 0 5.28 0 8 0 C8 0.66 8 1.32 8 2 C7.34 2 6.68 2 6 2 C5.67 3.65 5.34 5.3 5 7 C4.67 6.01 4.34 5.02 4 4 C1.98491642 3.26676204 1.98491642 3.26676204 0 3 C0 2.01 0 1.02 0 0 Z " fill="#96BAAE" transform="translate(150,43)"/>
<path d="M0 0 C1.67542976 0.28604898 3.34385343 0.61781233 5 1 C4.67 2.65 4.34 4.3 4 6 C2.68 5.67 1.36 5.34 0 5 C-0.5625 3.0625 -0.5625 3.0625 -1 1 C-0.67 0.67 -0.34 0.34 0 0 Z " fill="#BFEBD4" transform="translate(100,23)"/>
<path d="M0 0 C0.66 0 1.32 0 2 0 C2.66 1.65 3.32 3.3 4 5 C3.34 5 2.68 5 2 5 C2 5.66 2 6.32 2 7 C1.01 7 0.02 7 -1 7 C-1 6.34 -1 5.68 -1 5 C-1.66 5 -2.32 5 -3 5 C-3 4.34 -3 3.68 -3 3 C-2.34 3 -1.68 3 -1 3 C-0.67 2.01 -0.34 1.02 0 0 Z " fill="#0D8166" transform="translate(92,70)"/>
<path d="M0 0 C0.33 0 0.66 0 1 0 C1 3.3 1 6.6 1 10 C1.94875 9.34 2.8975 8.68 3.875 8 C7 6 7 6 9 6 C9 6.66 9 7.32 9 8 C7.25 9.2890625 7.25 9.2890625 5 10.625 C3.88625 11.29402344 3.88625 11.29402344 2.75 11.9765625 C2.1725 12.31429687 1.595 12.65203125 1 13 C0 12 0 12 -0.09765625 9.27734375 C-0.08605469 8.17519531 -0.07445312 7.07304688 -0.0625 5.9375 C-0.05347656 4.83277344 -0.04445312 3.72804687 -0.03515625 2.58984375 C-0.02355469 1.73519531 -0.01195312 0.88054688 0 0 Z " fill="#194739" transform="translate(54,38)"/>
<path d="M0 0 C-0.33 0.66 -0.66 1.32 -1 2 C-3.64860427 2.59355614 -6.29197322 2.74209269 -9 3 C-9 4.98 -9 6.96 -9 9 C-9.12375 8.360625 -9.2475 7.72125 -9.375 7.0625 C-9.684375 6.0415625 -9.684375 6.0415625 -10 5 C-10.66 4.67 -11.32 4.34 -12 4 C-8.41084094 -0.78554541 -5.58334594 -0.37222306 0 0 Z " fill="#2B3A34" transform="translate(121,150)"/>
<path d="M0 0 C1.65 0 3.3 0 5 0 C5 1.65 5 3.3 5 5 C3.0625 5.5625 3.0625 5.5625 1 6 C0 5 0 5 -0.0625 2.4375 C-0.041875 1.633125 -0.02125 0.82875 0 0 Z " fill="#C0EBD5" transform="translate(167,110)"/>
<path d="M0 0 C0.99 0 1.98 0 3 0 C3 3.96 3 7.92 3 12 C2.67 12 2.34 12 2 12 C1.87625 11.030625 1.7525 10.06125 1.625 9.0625 C1.315625 7.5465625 1.315625 7.5465625 1 6 C-0.7763932 4.9254644 -0.7763932 4.9254644 -2 5 C-2 2 -2 2 0 0 Z " fill="#709687" transform="translate(158,107)"/>
<path d="M0 0 C1.98 0 3.96 0 6 0 C5.67 1.65 5.34 3.3 5 5 C3.35 4.67 1.7 4.34 0 4 C0 2.68 0 1.36 0 0 Z " fill="#C3EDD6" transform="translate(161,65)"/>
<path d="M0 0 C2.85629995 3.59909109 4 6.35991705 4 11 C4.33 11.66 4.66 12.32 5 13 C1.125 12.125 1.125 12.125 0 11 C-0.07226502 9.14712498 -0.0838122 7.29166122 -0.0625 5.4375 C-0.05347656 4.42558594 -0.04445312 3.41367188 -0.03515625 2.37109375 C-0.02355469 1.58863281 -0.01195312 0.80617187 0 0 Z " fill="#1A574B" transform="translate(45,128)"/>
<path d="M0 0 C0.66 0 1.32 0 2 0 C2.33 3.96 2.66 7.92 3 12 C2.01 12.495 2.01 12.495 1 13 C-0.00496852 9.98509443 -0.10335303 7.95818308 -0.0625 4.8125 C-0.05347656 3.91144531 -0.04445312 3.01039063 -0.03515625 2.08203125 C-0.02355469 1.39496094 -0.01195312 0.70789063 0 0 Z " fill="#071F1B" transform="translate(35,148)"/>
<path d="M0 0 C2.475 0.99 2.475 0.99 5 2 C4.67 3.65 4.34 5.3 4 7 C2.35 5.68 0.7 4.36 -1 3 C-0.67 2.01 -0.34 1.02 0 0 Z " fill="#41AF97" transform="translate(22,122)"/>
<path d="M0 0 C0.33 0 0.66 0 1 0 C1 1.65 1 3.3 1 5 C-0.32 5.33 -1.64 5.66 -3 6 C-3 7.32 -3 8.64 -3 10 C-3.66 10 -4.32 10 -5 10 C-5 10.99 -5 11.98 -5 13 C-5.66 13 -6.32 13 -7 13 C-6.47731534 10.23723823 -5.89130413 7.6739124 -5 5 C-2.9375 4.3125 -2.9375 4.3125 -1 4 C-0.67 2.68 -0.34 1.36 0 0 Z " fill="#55D2B0" transform="translate(32,63)"/>
<path d="M0 0 C0.33 0 0.66 0 1 0 C1 3.96 1 7.92 1 12 C-2.51716303 12 -3.37121748 11.17554415 -6 9 C-5.67 8.34 -5.34 7.68 -5 7 C-3.35 7.99 -1.7 8.98 0 10 C0 6.7 0 3.4 0 0 Z " fill="#17493D" transform="translate(138,38)"/>
<path d="M0 0 C2.0374763 0.22858114 4.08040303 0.41024278 6.125 0.5625 C7.76855469 0.68818359 7.76855469 0.68818359 9.4453125 0.81640625 C10.28835937 0.87699219 11.13140625 0.93757812 12 1 C12 1.33 12 1.66 12 2 C5.07 2 -1.86 2 -9 2 C-9 1.67 -9 1.34 -9 1 C-2.25 -1.125 -2.25 -1.125 0 0 Z " fill="#FAFCEF" transform="translate(116,128)"/>
<path d="M0 0 C0.99 0 1.98 0 3 0 C3 0.66 3 1.32 3 2 C4.32 2.33 5.64 2.66 7 3 C7 3.33 7 3.66 7 4 C3.7 4 0.4 4 -3 4 C-3 3.34 -3 2.68 -3 2 C-2.01 2 -1.02 2 0 2 C0 1.34 0 0.68 0 0 Z " fill="#071E18" transform="translate(40,122)"/>
<path d="M0 0 C0.66 0 1.32 0 2 0 C2 0.99 2 1.98 2 3 C3.32 2.67 4.64 2.34 6 2 C5.67 2.99 5.34 3.98 5 5 C2.36 5 -0.28 5 -3 5 C-3.33 4.34 -3.66 3.68 -4 3 C-2.68 3 -1.36 3 0 3 C0 2.01 0 1.02 0 0 Z " fill="#17201D" transform="translate(151,119)"/>
<path d="M0 0 C1.65 0 3.3 0 5 0 C5 1.65 5 3.3 5 5 C3.35 5 1.7 5 0 5 C0 3.35 0 1.7 0 0 Z " fill="#14A083" transform="translate(70,122)"/>
<path d="M0 0 C0.515625 0.639375 1.03125 1.27875 1.5625 1.9375 C4.65935623 4.55791681 7.02067623 4.69389817 11 5 C11 5.33 11 5.66 11 6 C7.37 6.66 3.74 7.32 0 8 C0.33 7.01 0.66 6.02 1 5 C0.60602665 2.36195411 0.60602665 2.36195411 0 0 Z " fill="#202321" transform="translate(33,107)"/>
<path d="M0 0 C0.33 0 0.66 0 1 0 C1.12375 0.7425 1.2475 1.485 1.375 2.25 C2.22235986 5.97838339 3.2941453 8.2941453 6 11 C4.68 11 3.36 11 2 11 C0 9 0 9 -0.1953125 6.8359375 C-0.17210937 6.02382812 -0.14890625 5.21171875 -0.125 4.375 C-0.10695312 3.55773437 -0.08890625 2.74046875 -0.0703125 1.8984375 C-0.04710937 1.27195313 -0.02390625 0.64546875 0 0 Z " fill="#B7D5C2" transform="translate(44,153)"/>
<path d="M0 0 C0.66 0 1.32 0 2 0 C2 0.99 2 1.98 2 3 C2.66 3 3.32 3 4 3 C4 3.66 4 4.32 4 5 C3.34 5 2.68 5 2 5 C2 5.66 2 6.32 2 7 C1.34 7 0.68 7 0 7 C0 6.34 0 5.68 0 5 C-0.99 5 -1.98 5 -3 5 C-3 4.34 -3 3.68 -3 3 C-2.01 3 -1.02 3 0 3 C0 2.01 0 1.02 0 0 Z " fill="#4D514C" transform="translate(46,74)"/>
<path d="M0 0 C0.66 0 1.32 0 2 0 C2 0.99 2 1.98 2 3 C2.99 3.33 3.98 3.66 5 4 C5 5.32 5 6.64 5 8 C4.01 8 3.02 8 2 8 C2 7.01 2 6.02 2 5 C1.34 5 0.68 5 0 5 C0 3.35 0 1.7 0 0 Z " fill="#1B4A3E" transform="translate(48,33)"/>
<path d="M0 0 C3 1 3 1 5 3 C5.99 2.34 6.98 1.68 8 1 C7.1875 3.4375 7.1875 3.4375 6 6 C5.01 6.33 4.02 6.66 3 7 C2.01 4.69 1.02 2.38 0 0 Z " fill="#09372B" transform="translate(127,148)"/>
<path d="M0 0 C2.97 1.98 2.97 1.98 6 4 C5.67 6.97 5.34 9.94 5 13 C4.67 13 4.34 13 4 13 C3.9175 11.948125 3.835 10.89625 3.75 9.8125 C2.94679238 5.72952791 1.80665291 3.9877273 -1 1 C-0.67 0.67 -0.34 0.34 0 0 Z " fill="#0E372E" transform="translate(21,125)"/>
<path d="M0 0 C0.66 0.33 1.32 0.66 2 1 C1.34 4.96 0.68 8.92 0 13 C-0.33 13 -0.66 13 -1 13 C-1.2236337 11.58566794 -1.42826476 10.16832382 -1.625 8.75 C-1.74101562 7.96109375 -1.85703125 7.1721875 -1.9765625 6.359375 C-2.00319395 3.67847541 -1.36592084 2.27305911 0 0 Z " fill="#313935" transform="translate(143,104)"/>
<path d="M0 0 C2.9555377 2.75170751 5.11563315 5.41970299 7 9 C7 9.66 7 10.32 7 11 C3.30209954 9.76736651 3.0645154 8.79947549 1.3125 5.4375 C0.87550781 4.61121094 0.43851563 3.78492188 -0.01171875 2.93359375 C-0.33785156 2.29550781 -0.66398438 1.65742187 -1 1 C-0.67 0.67 -0.34 0.34 0 0 Z " fill="#21322C" transform="translate(148,60)"/>
<path d="M0 0 C2.52588702 2.36292656 3.88820837 3.66462511 5 7 C0.25 6.25 0.25 6.25 -2 4 C-1.34 4 -0.68 4 0 4 C0 2.68 0 1.36 0 0 Z " fill="#0F9276" transform="translate(129,158)"/>
<path d="M0 0 C1 3 1 3 0 6 C0.66 6.33 1.32 6.66 2 7 C-1.01031744 7.93423645 -1.86650268 8.04449911 -5 7 C-5 6.34 -5 5.68 -5 5 C-4.01 5 -3.02 5 -2 5 C-1.34 3.35 -0.68 1.7 0 0 Z " fill="#0A1612" transform="translate(139,158)"/>
<path d="M0 0 C0.66 0 1.32 0 2 0 C3.75747614 4.50353262 4.19294408 8.17639811 4 13 C3.67 13 3.34 13 3 13 C3 11.02 3 9.04 3 7 C2.34 7 1.68 7 1 7 C0.34 5.02 -0.32 3.04 -1 1 C-0.67 0.67 -0.34 0.34 0 0 Z " fill="#212C2A" transform="translate(163,144)"/>
<path d="M0 0 C2.0625 0.4375 2.0625 0.4375 4 1 C3.01 1.33 2.02 1.66 1 2 C0.67 4.97 0.34 7.94 0 11 C-0.33 11 -0.66 11 -1 11 C-1.02688151 9.35425434 -1.04634123 7.70838587 -1.0625 6.0625 C-1.07410156 5.14597656 -1.08570313 4.22945312 -1.09765625 3.28515625 C-1 1 -1 1 0 0 Z " fill="#0A1411" transform="translate(47,125)"/>
<path d="M0 0 C0 1.32 0 2.64 0 4 C-2.31 3.67 -4.62 3.34 -7 3 C-7 2.34 -7 1.68 -7 1 C-4 0 -4 0 0 0 Z " fill="#0E4133" transform="translate(129,76)"/>
<path d="M0 0 C1.32 0 2.64 0 4 0 C4 0.66 4 1.32 4 2 C6.97 2.495 6.97 2.495 10 3 C9.67 3.66 9.34 4.32 9 5 C4.545 4.01 4.545 4.01 0 3 C0 2.01 0 1.02 0 0 Z " fill="#5FD3B6" transform="translate(110,25)"/>
<path d="M0 0 C0.33 0.99 0.66 1.98 1 3 C-1.3125 5.0625 -1.3125 5.0625 -4 7 C-4.99 6.67 -5.98 6.34 -7 6 C-5.1875 4 -5.1875 4 -3 2 C-2.01 2 -1.02 2 0 2 C0 1.34 0 0.68 0 0 Z " fill="#0D9E7A" transform="translate(74,158)"/>
<path d="M0 0 C0.33 0 0.66 0 1 0 C1 3.3 1 6.6 1 10 C-0.32 8.68 -1.64 7.36 -3 6 C-2.34 5.67 -1.68 5.34 -1 5 C-0.34444881 2.47266765 -0.34444881 2.47266765 0 0 Z " fill="#434641" transform="translate(51,151)"/>
<path d="M0 0 C0.33 0 0.66 0 1 0 C1.18451025 9.41002278 1.18451025 9.41002278 0 14 C-0.33 14 -0.66 14 -1 14 C-1.33 10.7 -1.66 7.4 -2 4 C-1.34 4 -0.68 4 0 4 C0 2.68 0 1.36 0 0 Z " fill="#75B49E" transform="translate(142,144)"/>
<path d="M0 0 C0.66 0 1.32 0 2 0 C2 2.64 2 5.28 2 8 C1.34 8 0.68 8 0 8 C0 7.01 0 6.02 0 5 C-0.99 4.67 -1.98 4.34 -3 4 C-2.01 3.67 -1.02 3.34 0 3 C0 2.01 0 1.02 0 0 Z " fill="#0C221B" transform="translate(143,33)"/>
<path d="M0 0 C0.99 0.33 1.98 0.66 3 1 C4.1875 4.0625 4.1875 4.0625 5 7 C2.5 5.75 2.5 5.75 0 4 C0 2.68 0 1.36 0 0 Z " fill="#08B58C" transform="translate(125,148)"/>
<path d="M0 0 C1.65 0 3.3 0 5 0 C5 1.32 5 2.64 5 4 C3.35 4 1.7 4 0 4 C0 2.68 0 1.36 0 0 Z " fill="#0EB290" transform="translate(95,122)"/>
<path d="M0 0 C1.65 0 3.3 0 5 0 C5 1.32 5 2.64 5 4 C3.35 4 1.7 4 0 4 C0 2.68 0 1.36 0 0 Z " fill="#11B090" transform="translate(70,110)"/>
<path d="M0 0 C1.65 0 3.3 0 5 0 C5 1.32 5 2.64 5 4 C3.35 4 1.7 4 0 4 C0 2.68 0 1.36 0 0 Z " fill="#11B190" transform="translate(95,110)"/>
<path d="M0 0 C1.65 0 3.3 0 5 0 C5 1.32 5 2.64 5 4 C3.35 4 1.7 4 0 4 C0 2.68 0 1.36 0 0 Z " fill="#10A385" transform="translate(95,98)"/>
<path d="M0 0 C0.33 0 0.66 0 1 0 C1 2.31 1 4.62 1 7 C1.99 6.67 2.98 6.34 4 6 C4 6.99 4 7.98 4 9 C2.35 9 0.7 9 -1 9 C-1.33 8.34 -1.66 7.68 -2 7 C-1.34 7 -0.68 7 0 7 C0 4.69 0 2.38 0 0 Z " fill="#11362D" transform="translate(41,156)"/>
<path d="M0 0 C-0.25 1.875 -0.25 1.875 -1 4 C-2.875 5.3125 -2.875 5.3125 -5 6 C-5.99 5.67 -6.98 5.34 -8 5 C-3.375 0 -3.375 0 0 0 Z " fill="#7BAF9F" transform="translate(168,159)"/>
<path d="M0 0 C0.33 0 0.66 0 1 0 C1.33 1.65 1.66 3.3 2 5 C3.65 5.33 5.3 5.66 7 6 C6.67 6.66 6.34 7.32 6 8 C4.33388095 8.042721 2.66617115 8.04063832 1 8 C0 7 0 7 -0.0625 3.4375 C-0.041875 2.303125 -0.02125 1.16875 0 0 Z " fill="#B2E0CB" transform="translate(62,125)"/>
<path d="M0 0 C1.98 0.495 1.98 0.495 4 1 C3.67 2.32 3.34 3.64 3 5 C1.68 5 0.36 5 -1 5 C-0.67 3.35 -0.34 1.7 0 0 Z " fill="#22584A" transform="translate(158,36)"/>
<path d="M0 0 C0.66 0.66 1.32 1.32 2 2 C0.35 3.98 -1.3 5.96 -3 8 C-3.66 7.34 -4.32 6.68 -5 6 C-3.35 4.02 -1.7 2.04 0 0 Z " fill="#333733" transform="translate(140,131)"/>
<path d="M0 0 C0.625 1.875 0.625 1.875 1 4 C0.34 4.66 -0.32 5.32 -1 6 C-1.99 6 -2.98 6 -4 6 C-2.25 1.125 -2.25 1.125 0 0 Z " fill="#B3E6CB" transform="translate(133,127)"/>
<path d="M0 0 C1.485 0.99 1.485 0.99 3 2 C2.6875 3.875 2.6875 3.875 2 6 C1.01 6.66 0.02 7.32 -1 8 C-0.67 5.36 -0.34 2.72 0 0 Z " fill="#097A64" transform="translate(27,124)"/>
<path d="M0 0 C1.98 0.99 1.98 0.99 4 2 C4 2.66 4 3.32 4 4 C3.01 4.495 3.01 4.495 2 5 C1.34444881 7.52733235 1.34444881 7.52733235 1 10 C0.67 10 0.34 10 0 10 C0 6.7 0 3.4 0 0 Z " fill="#A5B5A6" transform="translate(136,119)"/>
<path d="M0 0 C0 2.31 0 4.62 0 7 C-0.66 6.67 -1.32 6.34 -2 6 C-2 4.68 -2 3.36 -2 2 C-3.65 2 -5.3 2 -7 2 C-7 1.67 -7 1.34 -7 1 C-2.25 0 -2.25 0 0 0 Z " fill="#395249" transform="translate(102,108)"/>
<path d="M0 0 C0 2.31 0 4.62 0 7 C-0.66 6.67 -1.32 6.34 -2 6 C-2 4.68 -2 3.36 -2 2 C-3.65 2 -5.3 2 -7 2 C-7 1.67 -7 1.34 -7 1 C-2.25 0 -2.25 0 0 0 Z " fill="#3B514A" transform="translate(77,108)"/>
<path d="M0 0 C2.92879371 0.62759865 5.36095629 1.58622659 8 3 C7.67 3.99 7.34 4.98 7 6 C3.535 4.02 3.535 4.02 0 2 C0 1.34 0 0.68 0 0 Z " fill="#2B3A34" transform="translate(124,41)"/>
<path d="M0 0 C0 1.65 0 3.3 0 5 C-1.32 4.67 -2.64 4.34 -4 4 C-4 3.01 -4 2.02 -4 1 C-2 0 -2 0 0 0 Z " fill="#224D42" transform="translate(51,111)"/>
<path d="M0 0 C0.66 0.33 1.32 0.66 2 1 C0.68 2.32 -0.64 3.64 -2 5 C-3.32 4.34 -4.64 3.68 -6 3 C-6 2.34 -6 1.68 -6 1 C-5.38125 1.20625 -4.7625 1.4125 -4.125 1.625 C-3.073125 1.810625 -3.073125 1.810625 -2 2 C-1.34 1.34 -0.68 0.68 0 0 Z " fill="#313A37" transform="translate(45,51)"/>
<path d="M0 0 C0.99 0 1.98 0 3 0 C2.75 1.875 2.75 1.875 2 4 C-0.0625 5.25 -0.0625 5.25 -2 6 C-1.34 4.02 -0.68 2.04 0 0 Z " fill="#ACCEC0" transform="translate(147,43)"/>
<path d="M0 0 C-2.97 0.66 -5.94 1.32 -9 2 C-9.33 1.34 -9.66 0.68 -10 0 C-4.5 -2.25 -4.5 -2.25 0 0 Z " fill="#223F35" transform="translate(83,38)"/>
</svg>
